<?xml version="1.0" encoding="UTF-8"?>
<svg id="Capa_1" data-name="Capa 1" xmlns="http://www.w3.org/2000/svg" viewBox="0 0 689.36 142.47">
  <defs>
    <style>
      .cls-1 {
        fill: #fff;
      }
    </style>
  </defs>
  <path class="cls-1" d="M28.75,50.64h32.98v4.85h-13.71v36.53h-5.14v-36.53h-14.13v-4.85Z"/>
  <path class="cls-1" d="M65.63,92.01l15.43-41.37h8.87l15.13,41.37h-5.44l-3.66-9.87h-21.1l-3.78,9.87h-5.44ZM94.35,77.41l-8.87-24.82-9.04,24.82h17.91Z"/>
  <path class="cls-1" d="M128.99,50.64c3.78,0,6.79.97,9.01,2.93,2.23,1.95,3.34,4.5,3.34,7.65,0,2.25-.55,4.21-1.65,5.88-1.1,1.67-2.62,2.91-4.55,3.69,5.12,1.54,7.68,4.89,7.68,10.05,0,3.43-1.16,6.15-3.49,8.16-2.33,2.01-5.52,3.01-9.57,3.01h-18.79v-41.37h18.03ZM115.98,55.31v13.59h12.59c2.36,0,4.26-.63,5.67-1.89,1.42-1.26,2.13-2.96,2.13-5.08,0-2.01-.67-3.61-2.01-4.82-1.34-1.2-3.17-1.8-5.5-1.8h-12.88ZM115.98,73.21v14.07h13.48c2.52,0,4.5-.63,5.94-1.89,1.44-1.26,2.16-3.01,2.16-5.26,0-2.36-.77-4.11-2.31-5.23s-3.57-1.68-6.09-1.68h-13.18Z"/>
  <path class="cls-1" d="M169.59,56.13c4.06-4.1,8.98-6.15,14.78-6.15,4.22,0,8.01,1.17,11.38,3.52,3.37,2.34,5.86,5.45,7.48,9.31l-4.96,1.42c-1.26-2.8-3.1-5.04-5.53-6.74-2.42-1.69-5.21-2.54-8.36-2.54h-.18c-4.37,0-8.05,1.56-11.02,4.67-2.98,3.11-4.46,6.95-4.46,11.52s1.49,8.3,4.46,11.44c2.97,3.13,6.71,4.7,11.2,4.7,3.19,0,5.98-.82,8.36-2.45,2.38-1.63,4.21-3.87,5.47-6.71l5.02,1.36c-1.62,3.82-4.1,6.91-7.45,9.25-3.35,2.34-7.15,3.52-11.41,3.52-5.83,0-10.77-2.06-14.81-6.18-4.04-4.12-6.06-9.09-6.06-14.92s2.03-10.87,6.09-15.01Z"/>
  <path class="cls-1" d="M209.01,92.01v-41.37h17.97c3.9,0,7.07,1.27,9.52,3.81,2.44,2.54,3.66,5.62,3.66,9.25,0,3.07-.91,5.72-2.72,7.95-1.81,2.23-4.12,3.66-6.92,4.28l10.11,16.08h-5.91l-9.81-15.54h-10.7v15.54h-5.2ZM226.38,71.91c2.52,0,4.61-.77,6.27-2.3,1.65-1.54,2.48-3.55,2.48-6.03,0-2.32-.73-4.29-2.19-5.88-1.46-1.6-3.45-2.39-5.97-2.39h-12.77v16.61h12.17Z"/>
  <path class="cls-1" d="M275.26,50.64v4.79h-23.82v13.53h21.45v4.67h-21.45v13.53h23.82v4.85h-29.02v-41.37h29.02Z"/>
  <path class="cls-1" d="M280.52,92.01l15.43-41.37h8.87l15.13,41.37h-5.44l-3.66-9.87h-21.1l-3.78,9.87h-5.44ZM309.24,77.41l-8.87-24.82-9.04,24.82h17.91Z"/>
  <path class="cls-1" d="M324.08,50.64h32.98v4.85h-13.71v36.53h-5.14v-36.53h-14.13v-4.85Z"/>
  <path class="cls-1" d="M362.79,92.01v-41.37h5.2v41.37h-5.2Z"/>
  <path class="cls-1" d="M373.6,50.64h5.73l13.42,39.12,13.65-39.12h5.61l-14.78,41.37h-8.92l-14.72-41.37Z"/>
  <path class="cls-1" d="M446.54,50.64v4.79h-23.82v13.53h21.45v4.67h-21.45v13.53h23.82v4.85h-29.02v-41.37h29.02Z"/>
  <path class="cls-1" d="M474.25,56.37c4.06-4.14,8.98-6.21,14.78-6.21,4.26,0,8.04,1.17,11.35,3.52,3.31,2.34,5.77,5.49,7.39,9.43l-5.08,1.18c-1.22-2.8-3.03-5.02-5.44-6.68-2.4-1.65-5.14-2.48-8.22-2.48-4.49,0-8.23,1.57-11.2,4.7-2.98,3.13-4.46,6.96-4.46,11.5s1.49,8.35,4.46,11.47c2.97,3.11,6.71,4.67,11.2,4.67,3.82,0,7.04-1.19,9.66-3.58,2.62-2.38,4.25-5.53,4.88-9.43h-14.6l-.06-4.43h19.8v1.71c0,5.95-1.84,10.89-5.53,14.83-3.68,3.94-8.4,5.91-14.15,5.91s-10.77-2.06-14.81-6.18c-4.04-4.12-6.06-9.11-6.06-14.98s2.03-10.82,6.09-14.95Z"/>
  <path class="cls-1" d="M514.44,92.01v-41.37h17.97c3.9,0,7.07,1.27,9.52,3.81,2.44,2.54,3.66,5.62,3.66,9.25,0,3.07-.91,5.72-2.72,7.95-1.81,2.23-4.12,3.66-6.92,4.28l10.11,16.08h-5.91l-9.81-15.54h-10.7v15.54h-5.2ZM531.82,71.91c2.52,0,4.61-.77,6.27-2.3,1.65-1.54,2.48-3.55,2.48-6.03,0-2.32-.73-4.29-2.19-5.88-1.46-1.6-3.45-2.39-5.97-2.39h-12.77v16.61h12.17Z"/>
  <path class="cls-1" d="M556.58,56.37c4.06-4.14,8.98-6.21,14.78-6.21s10.66,2.06,14.72,6.18c4.06,4.12,6.11,9.11,6.15,14.98,0,5.83-2.03,10.82-6.09,14.95-4.06,4.14-8.98,6.21-14.78,6.21s-10.77-2.07-14.81-6.21c-4.04-4.14-6.06-9.12-6.06-14.95s2.03-10.82,6.09-14.95ZM560.19,82.85c2.99,3.15,6.72,4.73,11.17,4.73s8.18-1.58,11.17-4.73c2.99-3.15,4.49-6.99,4.49-11.52s-1.5-8.32-4.49-11.5c-3-3.17-6.72-4.76-11.17-4.76s-8.13,1.58-11.14,4.73c-3.01,3.15-4.52,7-4.52,11.53s1.5,8.37,4.49,11.52Z"/>
  <path class="cls-1" d="M597.83,50.64h5.2v24.59c0,3.9,1.18,6.94,3.55,9.1,2.36,2.17,5.12,3.25,8.27,3.25s5.92-1.08,8.3-3.25c2.38-2.17,3.58-5.2,3.58-9.1v-24.59h5.14v24.59c0,5.32-1.65,9.53-4.94,12.62-3.29,3.09-7.32,4.64-12.09,4.64s-8.7-1.54-12.03-4.61c-3.33-3.07-4.99-7.29-4.99-12.65v-24.59Z"/>
  <path class="cls-1" d="M638.67,92.01v-41.37h17.97c3.94,0,7.12,1.29,9.54,3.87,2.42,2.58,3.63,5.74,3.63,9.49s-1.21,7.01-3.63,9.58-5.61,3.84-9.54,3.84h-12.77v14.6h-5.2ZM643.87,72.68h12.47c2.64,0,4.71-.84,6.21-2.51,1.5-1.67,2.25-3.77,2.25-6.29s-.74-4.52-2.22-6.12c-1.48-1.6-3.56-2.39-6.23-2.39h-12.47v17.32Z"/>
</svg>