<?xml version="1.0" encoding="UTF-8"?>
<svg id="Capa_2" data-name="Capa 2" xmlns="http://www.w3.org/2000/svg" viewBox="0 0 123.76 158.94">
  <defs>
    <style>
      .cls-1 {
        fill: #eaeaea;
      }
    </style>
  </defs>
  <g id="Capa_1-2" data-name="Capa 1">
    <g>
      <path class="cls-1" d="M67.99,0c1.04.44,2.27.51,3.39.84,15.08,4.51,14.8,23.15,2.35,30.56-5.23,3.12-13.25,3.29-13.89,11.37-.91,11.42,16.32,12.54,24,15.15,20.05,6.82,37.33,23.45,39.61,45.27.03.29.1.68.3.9v7.52c-.41.63-.24,1.46-.34,2.14-3.39,24.47-25.36,40.8-48.66,44.37-2.15.33-4.33.39-6.45.82h-9.43c-1.79-.43-3.66-.41-5.49-.66C28.02,154.76,3.34,136.81.38,109.95c-.03-.31-.1-.81-.3-1.06.19-3.66-.25-7.56,0-11.19,2.24-32.45,25.39-54.31,55.41-62.79,2.66-.75,5.82-1.21,8.34-2.05,1.57-.52,3.12-1.63,1.44-3.2-1.23-1.15-3.27-1.23-4.83-1.72-14.01-4.46-15.62-21.51-1.49-26.82l4.08-1.12h4.95ZM32.52,113.85c-.85,5.53-8.52,6.23-11.22,1.71-1.88-3.16-1.79-9.95,1.15-12.5,2.27-1.98,6.98-2.15,8.95.32.4.5.65,1.33,1.11,1.77.24.23,1.26.71,1.53.71h3.2c.35,0,.1-1.35.04-1.64-1.74-8.76-15.47-9.41-20-2.98-3.04,4.31-3.08,12.64-.32,17.08,4.49,7.23,18.37,6.18,20.29-2.86.06-.29.38-1.6,0-1.6h-4.71ZM53.85,97.7c-.84-.12-1.92.09-2.8,0v4h4.71c.77-1.63,0-3.72-1.92-4ZM80.78,103.21v-3.2c0-.21-.39-1.13-.55-1.37-.27-.38-1.16-.95-1.6-.95h-2.8v22.31c0,.86,1.34,2.13,2.2,2.28,1.14.21,3.95.34,5.08.21.23-.03.41-.02.55-.25v-3.36c-.66-.62-2.31.23-2.76-.76l-.12-11.32c2.02.18,3.25-1.26,2.85-3.25l-.34-.23c-.41.15-2.39.3-2.52-.11ZM102.03,122.48h4.71l.24-.24v-22.55c0-.74-1.4-2-2.16-2h-2.8c.05.16-.16.35-.16.4v23.98c0,.05.21.24.16.4ZM70.15,109.21c.74.15,2.48,0,3.36,0,.25,0,.23-.48.21-.67-.82-7.58-14.75-7.26-15.75-.81-.79,5.1,3.08,6.04,6.99,7.16,1.18.34,4.24.51,4.45,2.11.31,2.35-5.75,2.81-6.83.27-.18-.43-.1-.89-.41-1.18h-4.71c-.36,6.55,7.04,7.48,11.96,6.29,3.24-.78,5.29-3.25,4.96-6.67-.44-4.61-6.38-4.59-9.72-5.78-1.05-.38-2.12-.8-1.69-2.16.34-1.08,2.76-1.07,3.69-.95,1.74.21,2.21,2.14,3.51,2.4ZM84.77,108.25h4.55c.08,0,.82-.91,1.16-1.08,1.42-.7,6.13-.43,5.07,1.87-.67,1.45-5.08,1.57-6.63,2-3,.82-4.91,2.6-4.79,5.91.18,5.29,4.96,6.24,9.33,5.66s6.7-2.96,6.98-7.41c.13-1.98.24-7.34-.46-8.99-1.38-3.27-6.51-3.55-9.52-3.23-2.79.29-5.55,2.31-5.69,5.26ZM49.3,103.29c-3.95-.08-8.07,1.12-9.8,4.98-.37.83-.9,2.53-.9,3.41v10.63c.16-.05.35.16.4.16h4.31l.24-.24v-10.07c0-.12.19-1.19.23-1.37.31-1.14,1.67-2.39,2.88-2.39h2.4l.24-.24v-4.88ZM54.01,103.29c-.86-.14-2.05.11-2.96,0v18.95l.24.24h4.47l.24-.24v-17.27c0-.52-1.47-1.59-2-1.68ZM75.5,126.48c.09-.48-.2-.63-.59-.78-.43-.04-.53.68-.22.87l.8-.09ZM90.84,130.64v-4.4c0-.1-.22-.42-.36-.46l-.76.06c.27,1.45.23,3.1.04,4.56l.22.21.86.02ZM92.27,125.85c-.12-.16-.96-.13-.95.08.08,1.14,1.42.57.95-.08ZM102.67,127.12c-2.01-1.1-3.12,1.06-2.38,2.78.49,1.16,2.63,1.1,3.16.16.23-.42.29-3.45.15-3.95-.33-1.13-1.33.05-.93,1.01ZM51.22,127.76c.41.17,1.96-.45,2.08.08.17.81-2.6.11-2.23,2.07.23,1.24,2.76,1.09,3.12-.07.12-.39.14-1.75.07-2.16-.22-1.17-2.83-1.22-3.03.07ZM57.88,127.33c-.67-.72-2.6-.75-3.02.31-.71,1.77.43,3.91,2.43,2.84-.15,1.71-1.36.54-2.4.64.09,1.61,2.73,1.54,3.23.28.27-.66.25-3.54-.25-4.07ZM64.62,127.61c.45.82-.74.69-1.26.87-2.02.71-.5,3.15,1.58,2.06.93-.48,1.13-2.87.42-3.44-.6-.48-2.77-.52-2.65.65l1.9-.14ZM68.15,127.68c-.19.68.14,2.17,0,2.96h.96v-2.64c0-.51,1.44-.53,1.44.16v2.48h.96v-2.64c0-.41.97-.46,1.28-.24v2.48c0,.56,1.01.52,1.08.17-.42-1.41.63-3.38-1.5-3.6-.64-.06-1.02.31-1.42.3-.32,0-.58-.32-1.11-.31-.48,0-1.55.41-1.69.89ZM79.18,130.64v-2.8c0-.56-1.13-1.06-1.67-1.05-.72.02-1.68.59-1.68,1.37v2.48h1.12v-2.88c.4-.09.82-.33,1.13.07l.17,2.55c.12.37.63.26.94.26ZM83.01,129.04c.41-2.92-3.64-3.18-3.36.09.16,1.91,2.49,2.23,3.36.63.1-.35-.32-.27-.55-.23-.51.09-.86.57-1.38.41-.4-.09-.48-.52-.47-.9h2.4ZM89.05,127.16c-.56-.56-2.41-.47-2.84.36-.21.53,1.38.07,1.52.07.19,0,.51.06.55.25.17.79-2.41.13-2.24,1.9.15,1.5,3.01,1.34,3.2-.14.06-.42.05-2.19-.21-2.45ZM96.6,127.76c.41.17,1.96-.45,2.08.08.17.79-2.41.13-2.24,1.9.15,1.5,3.01,1.34,3.2-.14.05-.4.06-2.19-.16-2.41-.61-.6-2.73-.59-2.88.56ZM104.31,128.76c-.69.74.04,2.05,1.16,2.05,1.82,0,2.23-1.72,1.77-3.22-.35-1.12-2.74-1.08-2.96.17.24.21,2.26-.56,2.08.24-.43.59-1.58.28-2.03.76ZM59.68,126.96h-.96v2.64c0,1.58,3.36,1.37,3.36.16v-2.8c-.34,0-.79-.11-.94.26-.23.68.48,2.98-.86,2.75-.15-.03-.6-.28-.6-.37v-2.64ZM75.5,130.64v-3.44c-.22-.32-.62-.25-.96-.24v3.68h.96ZM83.65,128c-.16.66.12,1.9,0,2.64h.96v-2.32l1.05-.55.07-.81c-.67-.24-1.92.39-2.08,1.04ZM92.27,126.98c-.13-.11-.86-.05-.9.22v3.21s.92.23.92.23c.09-.6.34-3.36-.01-3.66ZM95.96,126.96h-3.04l.16.56c.39.27,1.25-.19,1.6.32,0,.22-2.37,2.06-1.91,2.8h3.36l-.26-.78-1.65-.02c.37-1.09,2-1.51,1.76-2.88Z"/>
      <path class="cls-1" d="M95.28,112.91c.09-.01.17-.05.27-.02l.23.26c.23,2.27-.38,4.88-2.85,5.57-2.13.6-4.27.05-4-2.56.21-1.98,2.38-1.98,3.84-2.39.65-.19,2.02-.79,2.51-.86Z"/>
      <path class="cls-1" d="M55.89,127.8c1.04-1.05,2.16,1.7.76,2.14-1.23.38-1.17-1.72-.76-2.14Z"/>
      <path class="cls-1" d="M101.81,127.63c1.08-.1,1.19,2.23.11,2.33s-1.24-2.22-.11-2.33Z"/>
      <path class="cls-1" d="M82.05,128.4h-1.36c-.34-.98,1.48-1.08,1.36,0Z"/>
      <path class="cls-1" d="M98.31,128.91c1.11-.12.07,1.58-.77,1.02-.57-.39.31-.97.77-1.02Z"/>
      <path class="cls-1" d="M64.6,129.8c-.34.33-1.32.37-1.21-.34.06-.34.82-.58,1.15-.57.37.1.28.7.06.91Z"/>
      <path class="cls-1" d="M87.93,128.91c1.11-.12.07,1.58-.77,1.02-.57-.39.31-.97.77-1.02Z"/>
      <path class="cls-1" d="M53.29,128.88c.41,1.26-1.64,1.52-1.26.42.11-.32.93-.44,1.26-.42Z"/>
      <path class="cls-1" d="M106.34,128.88c.2.83-.48,1.39-1.21.97v-.66s1.21-.31,1.21-.31Z"/>
    </g>
  </g>
</svg>