<?xml version="1.0" encoding="UTF-8"?>
<svg id="Capa_2" data-name="Capa 2" xmlns="http://www.w3.org/2000/svg" viewBox="0 0 189.89 85.28">
  <defs>
    <style>
      .cls-1 {
        fill: #eaeaea;
      }
    </style>
  </defs>
  <g id="Capa_1-2" data-name="Capa 1">
    <g>
      <path class="cls-1" d="M39.86,0l10.51,1.21c26.51.75,52.99,2.99,79.49,4.1,13.8.58,27.74.65,41.54,1.7,3.74.29,12.31.67,15.27,2.37,1.39.79,2.08,1.92,3.22,2.95v55.57c-1.5,2.32-3,3.83-5.79,4.48-43.18,4.26-86.4,8.46-129.62,12.44-.92.08-2.15.21-3.02.48h-9.91c-6.11-3.44-4.15-10.67-5.59-16.4-4.84-1.01-15.95,2.49-17.74-4.12-.14-.52.02-1.6-.33-1.84-3.12-.36-6.62.57-9.2-1.67-2.29-1.99-2.98-6.59-3.55-9.5C3.14,41.4,3,30.67,0,20.54v-1.69c1.47-2.74,1.63-4.71,5.06-5.45,5.96-1.29,13.26.38,19.35-.22l.17-.24c-.62-1.96.32-3.89,2.24-4.59,1.24-.45,2.43-.22,3.62-.73.49-.95.45-2,.85-3.02,1.12-2.86,3.57-3.54,6.16-4.59h2.42ZM38.12,2.73c-3.19.35-4.48,1.35-4.78,4.64-.63,7.05.73,17.17,1.45,24.4,1.35,13.55,3.26,27,4.34,40.59.26,3.3-.66,8.49,2.98,10.07,3.25,1.41,12.57-.38,16.48-.77,39.37-3.86,79.44-6.11,118.62-10.88,3.45-.42,10.44-.47,10.53-5.19.01-.69-.27-1.28-.27-1.92-.11-10.35.27-20.61.48-30.94.11-5.53.61-12.11-.26-17.6-.7-4.41-4.12-4.56-7.83-4.98-13.69-1.54-28.22-1.05-42.05-1.68-29.64-1.36-59.24-4.48-88.89-5.58-3.2-.12-7.74-.49-10.81-.16ZM22.11,65.47h13.89l-4.96-55.09-2.98.88-6.5,53.31.55.9ZM23.92,15.95H4.47c-1.13.98-1.7,2.49-1.82,3.98,3.09,10.62,2.63,21.97,5,32.7.34,1.52,1.27,5.78,2.33,6.73,1.64,1.48,6.53.47,8.62.56l5.31-43.97Z"/>
      <path class="cls-1" d="M61.52,61.76c-1.93,1.93-3.94,1.36-6.31,1.54-.77.06-1.52.47-2.3.36l11.47-39.99c.18-.27.45-.21.72-.25,3.24-.41,11.16-.15,14.3.7,7.32,1.98,5.92,7.05,4.26,12.78-2.44,8.43-4.52,13.62-14.2,14.55-1,.1-3.21-.26-3.88.23-1.94,2.8-1.59,7.61-4.05,10.08ZM75.74,29.72h-3.62s-.2-.24-.37-.14l-4.55,15.52c-.13.45,0,.28.32.32,1.53.17,3.85-.2,4.96-1.33,1.6-1.64,4.11-10.77,3.88-13.05-.06-.54-.19-.96-.61-1.33Z"/>
      <path class="cls-1" d="M105.34,23.92l-3.73,34.56c-1.44,2.51-4.94,1.04-7.14,2.16l.48-6.52h-4.23c-.11,0-1.77.56-1.98.68-2.06,1.09-1.63,4.79-3.36,5.82-1.01.6-5.21,1.18-6.51,1.24-.46.02-1.46-.04-1.5-.61-.03-.43,3.35-6.62,3.85-7.69,3.7-7.97,7.18-18.69,11.84-25.85.52-.8,2.82-3.79,3.7-3.79h8.58ZM97.6,34.31c-.65-.1-.73.07-1.02.55-1.35,2.29-3,6.9-4,9.53-.57,1.52-1.18,3.05-1.51,4.65.88-.07,4.78-.08,5.04-.88l1.48-13.86Z"/>
      <path class="cls-1" d="M121.52,35.51c-.37-.34,3.29-7.42-1.06-7.01-2.44.23-3.28,5.44-3.05,7.37.39,3.27,6.53,2.46,7.58,6.91,1.3,5.49-2.36,14.05-7.93,15.92-3.25,1.09-10.29,2.03-11.61-2.18-1.92-6.07,2.24-11.17,8.59-9.67l-1.62,6.65c4.59,3.6,7.11-6.12,5.35-8.82-1.59-2.44-6.31-2.26-7.29-5.27-1.35-4.16.94-11.15,4.41-13.82,3.29-2.53,12.31-3.54,13.77,1.44,1.56,5.3-1.38,9.81-7.14,8.46Z"/>
      <path class="cls-1" d="M141.36,35.01c-.31-1.14.83-5.35.35-6.03-.31-.44-1.75-.25-2.25-.04-1.76.71-2.88,5.2-2.37,6.84.61,1.96,6.49,3.11,7.28,6.49.75,3.24-1.83,11.28-4.51,13.4-3.45,2.74-12.87,4.31-13.51-1.91-.58-5.71,2.45-8.19,7.97-7.85.33.3-4.19,7.68.34,7.25,2.63-.25,4.46-7.8,2.94-9.68-.7-.86-3.37-1.62-4.47-2.3-2.98-1.84-2.92-4.24-2.36-7.39,1.13-6.34,5.02-10.58,11.85-9.83,7.59.83,6.48,12.96-1.27,11.06Z"/>
      <path class="cls-1" d="M161.27,40.35c.25.18.26.21.26.49,0,4.92-2.04,14.34-7.86,15.34-9.22,1.59-6.93-6.05-5.74-12.02.89-4.46,3.19-15.24,6.46-18.18,2.15-1.93,6.94-2.39,8.79.12,1.89,2.57,1.84,9.98-2.76,9.41-.75-.75,3.66-8.46-1.82-8.23-4.12.17-4.98,5.98-5.8,9.19-1.03,4.02-2.93,11.64-2.53,15.58.04.43.14.87.29,1.28,6.72,1.88,6.93-5.92,8.16-10.33-.94-.01-4.17-.65-2.92-2.08.13-.15,1.2-.58,1.35-.58h4.11Z"/>
      <path class="cls-1" d="M172.92,24.7c3.98-.64,6.25,1.43,6.11,5.39-.15,4.19-2.89,17.45-4.8,21.05-2.21,4.17-10.21,6.25-11.09.38-.53-3.56,2.48-15.02,3.63-18.95.91-3.11,2.46-7.27,6.15-7.86ZM173.16,27.36c-3.32.62-4.71,8.88-5.38,11.78-.62,2.72-2.35,9.31-1.55,11.71,1.08,3.27,4.66,1.44,5.83-.91,1.54-3.08,4.42-15.92,4.53-19.41.07-2.45-.9-3.63-3.43-3.16Z"/>
    </g>
  </g>
</svg>