<?xml version="1.0" encoding="UTF-8"?>
<svg id="Capa_2" data-name="Capa 2" xmlns="http://www.w3.org/2000/svg" viewBox="0 0 194.89 35.8">
  <defs>
    <style>
      .cls-1 {
        fill: #eaeaea;
      }
    </style>
  </defs>
  <g id="Capa_1-2" data-name="Capa 1">
    <g>
      <polygon class="cls-1" points="163.75 35.8 174.78 17.74 164.28 .31 173.49 .31 179.62 11.56 185.94 .31 194.66 .31 184.09 17.59 194.89 35.57 194.89 35.8 185.9 35.8 179.28 23.87 172.5 35.8 163.75 35.8"/>
      <polygon class="cls-1" points="87.7 15.55 95.78 .16 95.98 .17 104.03 11.63 104.43 11.2 112.1 .16 120.51 .16 120.51 35.65 112.74 35.65 112.74 13.68 104.22 24.59 103.95 24.64 95.39 13.68 95.39 35.65 87.7 35.65 87.7 15.55"/>
      <path class="cls-1" d="M0,.16h15.19c7.73.44,12.61,4.8,12.14,12.81-.25,4.34-2.76,7.82-6.7,9.57l7.84,13.11h-9.06l-6.81-11.55h-4.49l-.11.11v11.44H0V.16ZM7.99,7.07v10.3l.26.12c3.11-.22,7.73.82,9.98-1.9,1.58-1.91,1.54-5.56-.38-7.22-2.41-2.08-6.91-1.03-9.86-1.29Z"/>
      <path class="cls-1" d="M126.6,35.65L140.03,0h7.42s13.33,35.65,13.33,35.65h-8.22l-2.85-7.61-12.38.04-2.74,7.56h-7.99ZM139.69,21.36h7.61l-3.77-10.79-3.84,10.79Z"/>
      <polygon class="cls-1" points="59.91 .16 59.91 7.07 43.77 7.07 43.77 14.44 58.09 14.44 58.09 21.21 43.77 21.21 43.77 28.88 54.51 28.88 50.81 35.65 35.93 35.65 35.93 .16 59.91 .16"/>
      <polygon class="cls-1" points="87.47 .16 68.7 35.65 59.07 35.65 77.84 .16 87.47 .16"/>
    </g>
  </g>
</svg>