<?xml version="1.0" encoding="UTF-8"?>
<svg id="Capa_2" data-name="Capa 2" xmlns="http://www.w3.org/2000/svg" viewBox="0 0 201.67 45.44">
  <defs>
    <style>
      .cls-1 {
        fill: #eaeaea;
      }
    </style>
  </defs>
  <g id="Capa_1-2" data-name="Capa 1">
    <g>
      <path class="cls-1" d="M126.43,21.74c3.8,1.52,6.6,4.36,7.18,8.54,1.09,7.83-4.77,13.73-12.37,14.18-5.37.32-11.32-.04-16.77-.01-.63,0-1.28.2-1.99,0V2.77s16.26,0,16.26,0c5.25.32,9.31,2.39,10.87,7.68,1.27,4.28-.21,8.18-3.19,11.29ZM113.97,18.97h3.25c2.79,0,4.84-3.34,4.01-5.95-.36-1.14-2.09-3.05-3.32-3.05h-6.58v27.28h8.52c3,0,5.09-3.52,4.76-6.29-.23-1.94-2.29-4.52-4.35-4.52h-6.3v-7.48Z"/>
      <path class="cls-1" d="M0,2.49h16.28c12.84.76,16.9,17.14,5.78,23.24-1.03.56-2.12.77-3.05,1.24-.13.07-.22-.04-.17.23l12.32,17.24h-10.46l-8.93-13.64v-10.04h2.7c2.62,0,5.27-2.9,5.34-5.47.07-2.51-2.33-5.61-4.93-5.61h-6.3v34.76H0V2.49Z"/>
      <path class="cls-1" d="M90.84,0v44.45h-8.31v-3.32c-7.69,7.61-19.29,2.45-20.87-7.73-1.91-12.28,11.12-21.25,20.87-12.49l-.14-20.91h8.45ZM75.3,24.69c-6.14.88-6.95,11.09-.69,13.08,9.67,3.07,11.26-14.6.69-13.08Z"/>
      <path class="cls-1" d="M38.77,33.1c.14,6.18,8.21,7.68,11.16,2.5l6.69,3.09c-1.43,2.51-3.88,4.56-6.56,5.63-10.76,4.26-22.16-4.2-19.81-15.79,2.95-14.6,25.34-15.17,27.08.63.08.77.23,2.76.15,3.47-.02.2-.02.36-.21.48h-18.49ZM49.16,28.39c-.46-6.84-9.95-6.86-10.39,0h10.39Z"/>
      <path class="cls-1" d="M145.13,18.97c-.03,1.31.03,2.64,0,3.95-.08,3.55-.45,7.84-.15,11.35.35,4.01,5.46,5.6,8.3,2.89.48-.46,1.4-1.98,1.4-2.62v-15.58h8.31v17.38c0,4.08-5.64,8.66-9.48,8.94-2.26.16-7.24.23-9.25-.46-3.1-1.06-7.58-4.78-7.58-8.34v-17.52h8.45Z"/>
      <path class="cls-1" d="M190.27.42v44.04c-2.57.16-5.14.22-7.7.01-.29-.02-.54.27-.75-.08V.42h8.45Z"/>
      <rect class="cls-1" x="167.7" y=".42" width="8.17" height="44.18"/>
      <path class="cls-1" d="M195.45,1.16c3.09-3.04,8.13,1.08,5.49,4.73-3.06,4.22-9.07-1.2-5.49-4.73ZM197.3.59c-.8.14-1.84.95-2.21,1.67-1.67,3.25,2.61,6.38,5.16,3.91,2.43-2.36.34-6.14-2.95-5.58Z"/>
      <path class="cls-1" d="M198.79,1.66c1.54.25,1.32,2.31-.21,2.22l1.25,1.94c-1.48-.01-.99-2.5-2.77-1.94v1.94h-.28V1.66c.62.07,1.42-.1,2.01,0ZM199.24,3.29c.32-.31.16-.96-.25-1.14-.49-.22-1.38,0-1.94-.07v1.39c.56-.06,1.74.26,2.18-.17Z"/>
    </g>
  </g>
</svg>