<?xml version="1.0" encoding="UTF-8"?>
<svg id="Capa_2" data-name="Capa 2" xmlns="http://www.w3.org/2000/svg" viewBox="0 0 291.09 63.96">
  <defs>
    <style>
      .cls-1 {
        fill: #eaeaea;
      }
    </style>
  </defs>
  <g id="Capa_1-2" data-name="Capa 1">
    <g>
      <g>
        <path class="cls-1" d="M152.5,55.31c1.32,2.2,4.92,2.84,6.78,1l3.78,4.8c.22.92-4.34,2.5-5.26,2.64-2.2.34-4.9.4-6.86-.78-1.1-.66-2.14-2.34-3.38-2.56-.86-.16-1.58,1.18-2.66.68-.26-.12-3.58-4.06-3.64-4.34-.22-.96,2.3-1.12,2.3-1.64-4.86-2.06-8.6-5.22-10-10.48-3.38-12.62,6.54-23,19.28-20.28,16.56,3.52,16.02,28.06-.34,30.94v.02ZM143.02,47.93c4.04,3.52,11.3,2.12,13.92-2.56,4.1-7.3-1-16.9-9.76-15.38-8.24,1.44-10.06,12.8-4.16,17.92v.02Z"/>
        <path class="cls-1" d="M108.35,24.54l13.62,18.42.76.42v-18.84h6.28v30.76h-6.28c-.04-.48-.3-.86-.58-1.24-4.3-5.48-8.4-12.52-12.84-17.6-.34-.38-.5-.82-1.14-.68v19.52h-16.54c-.18-.9.22-.56.68-.8,3.92-2.1,6.2-3.6,7.98-7.9.24-.58,1.26-3.34,1.26-3.7v-17.52c0-.1.44-.5.34-.82h6.44l.02-.02Z"/>
        <path class="cls-1" d="M41.04,29.5h-14.72l-.5.5v6.12h11.74c.82,1.28.8,4.38,0,5.62h-11.24l-.5.5v6.28l.5.5h14.22c.76.54.66,4.88.36,5.32l-.4.26-22.28-.12-6.6-11.22c.1-.46,2.38-1.28,2.96-1.7,5.14-3.68,4.7-12.94-.74-16.08l-3.54-1.6h30.26l.5.5v5.12h-.02Z"/>
        <path class="cls-1" d="M259.33,55.31l12.06-30.78,8.08.06,11.62,30.72h-7.1l-2.36-5.24c-3.8.28-8.52-.52-12.2-.06-1.7.22-2.02,3.86-2.8,5.3h-7.3ZM270.57,44.39h9.26l-4.46-12.9c-.68-.14-.46.26-.64.66-.38.88-.72,1.96-1.08,2.9-.42,1.1-3.4,8.98-3.06,9.34h-.02Z"/>
        <path class="cls-1" d="M233.01,52.81c-4.22,3.94-12.92,3.46-17.9,1.24-.8-.36-3.9-2.14-4.26-2.7-.28-.42-.18-.58,0-.98.2-.42,3.04-4.2,3.3-4.22,3.54,2.74,8.2,5.12,12.72,3.38,2.38-.9,3.52-3.58,1.12-5.06-4.36-2.68-15.04-1.76-16.24-8.9-2.18-13,16.3-14.32,23.24-7.36l-3.36,4.6c-3.26-1.94-7.32-3.96-11.28-2.68-1.48.48-2.68,2.18-1.9,3.72,1.16,2.34,12.4,2.66,15.84,6.98,2.82,3.52,1.86,9.06-1.3,12.02l.02-.04Z"/>
        <path class="cls-1" d="M174.66,24.54v20c0,.2.9,2.18,1.12,2.52,2.16,3.56,8.64,3.94,11.46,1.12.62-.62,1.98-3.22,1.98-3.98v-19.68h6.62v20.34c0,.94-.96,3.58-1.42,4.54-4.98,10.2-26.36,7.76-26.36-4.54v-20.34h6.62l-.02.02Z"/>
        <path class="cls-1" d="M69.05,27.98c.44.42,2.42,2.96,2.4,3.36l-5.58,2.66c-5.7-8.58-17.52-3.32-16.88,6.6.48,7.28,8.8,12.52,14.86,7.56.72-.6,1.88-2.46,2.44-2.4l5.18,2.26c-5.16,11.24-22.64,9.58-27.6-1-7.88-16.74,13.4-30.6,25.18-19.06v.02Z"/>
        <polygon class="cls-1" points="262.63 24.54 262.63 30.16 253.71 30.16 253.71 55.31 247.09 55.31 247.09 30.16 238.17 30.16 238.17 24.54 262.63 24.54"/>
        <path class="cls-1" d="M83.63,29.92c13.88-2.18,14.96,18.94,2.86,20.06-12.48,1.16-13.68-18.36-2.86-20.06Z"/>
        <rect class="cls-1" x="200.12" y="24.54" width="6.28" height="30.76"/>
        <path class="cls-1" d="M.04,37.78v-7.94h8.44c.24,0,1.9,1.14,2.16,1.48.92,1.26.92,3.7,0,4.98-.26.34-1.92,1.48-2.16,1.48H.04Z"/>
        <path class="cls-1" d="M10.62,54.65H.04v-10.92c1.22.2,3.96-.42,4.8.32l5.78,10.58v.02Z"/>
      </g>
      <g>
        <path class="cls-1" d="M.64,6.08c.4-.76.96-1.36,1.68-1.78.72-.42,1.52-.64,2.38-.64s1.62.18,2.26.56,1.12.84,1.42,1.4v-1.8h1.66v9.88h-1.66v-1.84c-.32.58-.8,1.06-1.46,1.44-.64.38-1.4.56-2.24.56s-1.66-.22-2.38-.64c-.7-.44-1.26-1.04-1.68-1.82-.4-.78-.62-1.66-.62-2.66s.2-1.9.62-2.66h.02ZM7.94,6.82c-.3-.56-.7-.98-1.22-1.28-.52-.3-1.08-.44-1.68-.44s-1.18.14-1.68.44c-.5.28-.9.7-1.2,1.26s-.46,1.2-.46,1.94.16,1.42.46,1.98.7.98,1.2,1.28,1.06.44,1.68.44,1.18-.14,1.68-.44c.52-.3.92-.72,1.22-1.28.3-.56.46-1.22.46-1.96s-.16-1.4-.46-1.94Z"/>
        <path class="cls-1" d="M21.58,3.84v9.88h-1.64v-1.46c-.32.5-.74.9-1.3,1.18s-1.18.42-1.84.42c-.76,0-1.46-.16-2.08-.48s-1.1-.8-1.46-1.44-.54-1.42-.54-2.32V3.84h1.62v5.56c0,.98.24,1.72.74,2.24s1.16.78,2.02.78,1.56-.28,2.08-.82.76-1.32.76-2.36V3.82h1.64v.02Z"/>
        <path class="cls-1" d="M25.82,13.48c-.6-.26-1.08-.62-1.42-1.08-.34-.46-.54-1-.58-1.6h1.7c.04.5.28.9.7,1.2.42.32.96.46,1.64.46.62,0,1.12-.14,1.48-.42s.54-.62.54-1.04-.2-.76-.58-.96c-.38-.22-.98-.42-1.78-.62-.74-.2-1.34-.38-1.8-.58s-.86-.5-1.18-.88c-.34-.4-.5-.9-.5-1.54,0-.5.16-.96.46-1.38s.72-.76,1.28-1,1.18-.36,1.9-.36c1.1,0,1.98.28,2.64.82.68.56,1.04,1.3,1.08,2.28h-1.64c-.04-.52-.24-.94-.62-1.24-.38-.32-.88-.46-1.52-.46-.58,0-1.06.12-1.4.38-.34.26-.52.58-.52,1,0,.32.1.6.32.8.22.22.48.38.8.5s.76.26,1.32.42c.7.2,1.28.38,1.72.56s.82.46,1.14.84c.32.38.48.86.5,1.46,0,.54-.16,1.02-.46,1.46s-.72.78-1.28,1.02c-.54.24-1.18.36-1.88.36-.76,0-1.44-.12-2.04-.38l-.02-.02Z"/>
        <path class="cls-1" d="M36.86,4.24c.64-.38,1.4-.56,2.24-.56s1.68.22,2.38.64c.72.42,1.28,1.02,1.68,1.78.4.76.62,1.64.62,2.66s-.2,1.88-.62,2.66c-.4.78-.98,1.38-1.68,1.82-.72.44-1.52.64-2.38.64s-1.58-.18-2.22-.56-1.14-.84-1.46-1.42v6.5h-1.64V3.84h1.64v1.82c.32-.56.8-1.04,1.46-1.42h-.02ZM41.66,6.8c-.3-.56-.7-.98-1.22-1.26s-1.08-.44-1.68-.44-1.16.14-1.66.44c-.52.3-.92.72-1.22,1.28s-.46,1.2-.46,1.94.16,1.4.46,1.96c.3.56.72.98,1.22,1.28.52.3,1.06.44,1.66.44s1.18-.14,1.68-.44c.52-.3.92-.72,1.22-1.28.3-.56.46-1.22.46-1.98s-.16-1.4-.46-1.94Z"/>
        <path class="cls-1" d="M46.01,1.92c-.22-.22-.32-.48-.32-.8s.1-.58.32-.8.48-.32.8-.32.56.1.76.32c.22.22.32.48.32.8s-.1.58-.32.8-.46.32-.76.32-.58-.1-.8-.32ZM47.59,3.84v9.88h-1.64V3.84h1.64Z"/>
        <path class="cls-1" d="M50.39,6.08c.4-.76.98-1.36,1.7-1.78s1.56-.64,2.5-.64c1.22,0,2.22.3,3,.88s1.3,1.4,1.56,2.46h-1.76c-.16-.6-.5-1.08-.98-1.42-.48-.34-1.1-.52-1.82-.52-.94,0-1.7.32-2.28.96-.58.64-.86,1.56-.86,2.72s.28,2.1.86,2.76c.58.64,1.34.98,2.28.98.72,0,1.32-.16,1.8-.5s.82-.82,1-1.44h1.76c-.26,1-.8,1.82-1.58,2.42-.8.6-1.78.9-2.98.9-.94,0-1.76-.22-2.5-.64-.72-.42-1.3-1.02-1.7-1.78s-.62-1.66-.62-2.7.2-1.92.62-2.68v.02Z"/>
        <path class="cls-1" d="M61.37,1.92c-.22-.22-.32-.48-.32-.8s.1-.58.32-.8.48-.32.8-.32.56.1.76.32c.22.22.32.48.32.8s-.1.58-.32.8-.46.32-.76.32-.58-.1-.8-.32ZM62.97,3.84v9.88h-1.64V3.84h1.64Z"/>
        <path class="cls-1" d="M65.75,6.08c.4-.76.96-1.36,1.68-1.78s1.52-.64,2.38-.64,1.62.18,2.26.56,1.12.84,1.42,1.4v-1.8h1.66v9.88h-1.66v-1.84c-.32.58-.8,1.06-1.46,1.44-.64.38-1.4.56-2.24.56s-1.66-.22-2.38-.64c-.7-.44-1.26-1.04-1.68-1.82-.4-.78-.62-1.66-.62-2.66s.2-1.9.62-2.66h.02ZM73.05,6.82c-.3-.56-.7-.98-1.22-1.28-.52-.3-1.08-.44-1.68-.44s-1.18.14-1.68.44-.9.7-1.2,1.26c-.3.56-.46,1.2-.46,1.94s.16,1.42.46,1.98.7.98,1.2,1.28,1.06.44,1.68.44,1.18-.14,1.68-.44c.52-.3.92-.72,1.22-1.28.3-.56.46-1.22.46-1.96s-.16-1.4-.46-1.94Z"/>
      </g>
    </g>
  </g>
</svg>