<?xml version="1.0" encoding="UTF-8"?>
<svg id="Capa_2" data-name="Capa 2" xmlns="http://www.w3.org/2000/svg" viewBox="0 0 152.03 140.49">
  <defs>
    <style>
      .cls-1 {
        fill: #eaeaea;
      }
    </style>
  </defs>
  <g id="Capa_1-2" data-name="Capa 1">
    <g>
      <path class="cls-1" d="M68.97,101.56c.15,0,.39-.24.6-.29l.05-.34c-.15-17.77.12-35.51,0-53.28,0-2.49-.44-5.05-.29-7.64.19-3.46.31-4.71,3.24-6.7,3.77-2.54,8.68-4.86,12.69-7.18,3.09-1.79,6.19-3.65,9.21-5.56l.6-.05.27,2.15v67.43h5.34c.39-12.18-.51-24.68,0-36.84.05-.92-.17-2.18,1.09-1.84.87.22,3,1.26,3.94,1.69,4.09,1.89,8,4.3,11.99,6.36,3.99,2.05,9.79,3.12,10.27,8.34.48,5.22,0,12.14,0,17.58s-.02,10.81,0,16.2h23.18v6.89h-27.9c-.22,0-1.45-.85-1.62-1.18-.31-.56-.48-1.84-.56-2.51-.6-7.86.17-17.04.27-24.97.02-2.2.29-6.04-.15-8.05-.29-1.38-.94-2.27-2.08-3-1.79-1.14-8.87-4.69-10.78-5.27-.27-.07-.48-.17-.77-.12v33l-.39.39h-18.23c.07-.24-.27-.56-.27-.63v-62.08l-10.27,5.39c-3.48,2.1-1.64,6.65-2.49,10.01v58.51h-19.87c.05-1.23-.05-2.47,0-3.7.15-4.25.82-12.31-1.04-16-.7-1.38-1.62-2.18-2.71-3.22-3.6-3.41-7.95-6.38-11.7-9.65-.44-.12-.75.15-1.09.36-1.52.99-3.96,3.19-5.49,4.45-2.13,1.76-6.87,5.44-8.41,7.37-1.43,1.79-.97,2.49-1.14,4.47-.02.31-.27.68-.27.75v15.16H.39l-.39-.39v-5.1l.39-.39h16.83l.39-.39v-13.25c0-.77.36-2.64.65-3.43.41-1.23,1.14-1.93,2.03-2.8,4.28-4.16,11.41-9.14,16.32-12.74.36-.27.65-.77,1.02-1.02,2.03-1.43,3.12-1.45,5.2-.12,2.47,1.6,5.22,4.59,7.62,6.48,3,2.37,6.79,4.71,9.6,7.16.73.63,2.68,3.07,2.68,3.94v15.28l.39.39c1.79-.22,4.16.29,5.85,0h.02Z"/>
      <path class="cls-1" d="M146.46,90.37l-.39-.63-1.79-16.56c-3.58-20.62-12.74-40.59-29.83-53.26C81.47-4.5,40.93,5.75,19.7,39.31c-9.69,15.33-12.64,32.18-14.19,50.02-1.11,2.44-3.38.99-5.46,1.28.1-2.49-.12-5.03,0-7.52C1.69,51.56,19.78,18.06,49.75,5.61c20.16-8.39,39.84-7.45,58.8,3.38,29.16,16.68,41.41,46.44,43.4,78.93.05.8-.02,1.62,0,2.42h-5.49v.02Z"/>
      <path class="cls-1" d="M46.8,121.46c.44.07,1.21,1.16,1.5,1.55,1.76,2.22,3.34,5.17,5.17,7.3.15.19,0,.48.58.31v-8.8l.39-.39h4.98v18.23c-.85.85-3.05.8-4.18.63-2.71-.41-4.47-4.93-6.02-6.94-.39-.51-1.98-2.59-2.54-2.22v9.16h-4.71l-.39-.39v-18.47h5.22v.02Z"/>
      <path class="cls-1" d="M123.63,130.38v-8.53l.39-.39h4.71v18.86h-4.71c-1.21,0-6.21-8.7-7.78-9.69v9.43c-.24-.07-.56.27-.63.27h-4.09l-.39-.39v-18.47h4.98c.87,0,5.49,7.25,6.62,8.41.27.27.44.6.89.51Z"/>
      <path class="cls-1" d="M150.52,125.93c2.22,3.55,1.96,7.06-.51,10.54-5.85,8.29-20.53,2.83-17.94-8,2.03-8.49,13.71-10.08,18.45-2.54ZM138.5,127.65c-2.22,2.59-.87,7.25,2.59,7.57,3.75.36,6.24-2.61,4.98-6.24-1.04-2.97-5.54-3.67-7.57-1.33Z"/>
      <path class="cls-1" d="M87.47,140.31l6.87-18.42c.39-.63,6.89-.63,7.33-.12,2.08,5.34,4.3,10.64,6.26,16.05.29.8,1.02,1.35.7,2.49h-5.22c-1.16,0-1.28-2.71-2.42-3.19-.65-.27-4.88-.24-5.58,0-1.64.56-1.28,3.17-2.44,3.17h-5.49v.02ZM99.7,132.41l-1.64-4.33c-.24,0-1.62,4.11-1.4,4.33h3.05Z"/>
      <path class="cls-1" d="M18.25,140.31c-.24-.07-.48-.51-.29-.77l7.01-17.72c.29-.41.73-.34,1.16-.39,1.18-.12,3.67-.12,4.86,0s1.28.56,1.76,1.52c1.26,5.08,4.84,10.66,6.12,15.54.17.6.15,1.18.12,1.79h-5.22c-.87,0-1.33-2.49-1.81-3.07-2.25-.12-5.29-1.11-7.08.56-.34.44-.68,2.54-1.28,2.54h-5.34ZM30.12,132.41l-.53-2.15-.99-2.44c-.22.68-1.81,4.3-1.52,4.59h3.05,0Z"/>
      <path class="cls-1" d="M6.67,126.29c-.73,1.04,4.4,2.1,4.96,2.3,3,1.11,5.46,1.98,5.51,5.73.07,6.04-6.55,6.38-11.1,5.97-1.09-.1-5.42-1.43-5.87-2.3-.34-.63.53-2.32.94-2.9,1.35-1.86,2.88-.31,4.5,0,1.04.22,5,.97,5.56.07.31-.8-.85-1.4-1.45-1.64-3.38-1.31-9.04-1.23-9.11-6.16-.07-4.42,3.07-6.04,7.01-6.45,1.81-.19,3.46.17,5.2.6,4.67,1.18,4.25,1.96,1.62,5.71-2.54-.46-5.2-2.42-7.74-.99l-.02.07Z"/>
      <path class="cls-1" d="M77.51,125.78h-5.1l-.27,9.07c.19,1.74.6,3.89-.36,5.46h-4.71v-13.9l-.39-.39h-4.33l-.39-.39v-4.21h15.16l.39.39v3.96Z"/>
      <polygon class="cls-1" points="79.8 140.31 79.8 121.46 84.78 121.46 85.17 121.84 85.17 139.93 84.78 140.31 79.8 140.31"/>
      <path class="cls-1" d="M32.78,89.33h5.61l.39.39v4.84s-.58.63-.63.63h-5.1s-.63-.58-.63-.63v-4.84l.39-.39h-.02Z"/>
      <path class="cls-1" d="M38.54,103.35h-5.73l-.39-.39v-5.1l.39-.39h5.34c.15,0,.51.63.51.87.12,1.35-.24,3.51-.15,4.98l.02.02Z"/>
      <path class="cls-1" d="M46.17,89.33c.15,1.91.75,4.18-.39,5.85h-4.98c.07-.24-.27-.56-.27-.63v-5.22h5.63Z"/>
      <path class="cls-1" d="M46.17,103.35h-5.34v-5.49l.39-.39h4.59c1.06,1.64.24,3.96.39,5.85l-.02.02Z"/>
    </g>
  </g>
</svg>