<?xml version="1.0" encoding="UTF-8"?>
<svg id="Capa_2" data-name="Capa 2" xmlns="http://www.w3.org/2000/svg" viewBox="0 0 190.14 82.89">
  <defs>
    <style>
      .cls-1 {
        fill: #eaeaea;
      }
    </style>
  </defs>
  <g id="Capa_1-2" data-name="Capa 1">
    <g>
      <g>
        <path class="cls-1" d="M16.1,47.5c.29,1.58.58,3.15.87,4.73-1.74.32-3.47.65-5.21.99.9,4.54,1.79,9.09,2.69,13.63-1.82.36-3.64.73-5.46,1.11-.96-4.53-1.91-9.06-2.87-13.59-1.69.36-3.39.73-5.08,1.1-.35-1.56-.7-3.13-1.05-4.69,5.35-1.2,10.72-2.29,16.1-3.28Z"/>
        <path class="cls-1" d="M19.18,56.45c-.95-5.12,2.2-10.23,8.8-11.27,6.6-1.03,11.15,2.88,11.8,8.05.66,5.18-2.56,10.04-8.82,11.01-6.26.98-10.82-2.66-11.77-7.79ZM34.05,54.02c-.37-2.59-2.37-4.55-5.33-4.09-2.95.46-4.26,2.94-3.83,5.52.44,2.58,2.44,4.49,5.32,4.04,2.88-.45,4.21-2.88,3.83-5.47Z"/>
        <path class="cls-1" d="M43.33,62.2c-.78-6.19-1.56-12.37-2.34-18.56,3.06-.39,6.13-.74,9.2-1.06,5.73-.6,10.33,3.25,10.73,8.39.4,5.17-3.34,9.64-8.78,10.21-2.94.31-5.87.65-8.81,1.02ZM47.4,47.72c.34,3.01.68,6.02,1.01,9.03.81-.09,1.62-.18,2.44-.27,2.92-.31,4.57-2.26,4.31-5-.26-2.77-2.28-4.38-5.27-4.03-.83.09-1.66.18-2.49.27Z"/>
        <path class="cls-1" d="M62.35,50.86c-.43-5.19,3.2-9.95,9.86-10.32,6.65-.35,10.77,3.99,10.91,9.2.14,5.22-3.55,9.73-9.87,10.07-6.31.35-10.47-3.75-10.9-8.95ZM77.34,49.95c-.11-2.61-1.9-4.76-4.88-4.6-2.98.16-4.53,2.49-4.35,5.1.17,2.61,1.97,4.71,4.87,4.56,2.9-.16,4.46-2.44,4.35-5.05Z"/>
        <path class="cls-1" d="M102.59,39.95c3.26.05,5.46,1.34,7.49,3.17-1.15,1.17-2.28,2.35-3.41,3.54-1.27-1.45-2.82-1.88-4.15-1.9-3.04-.04-5.02,2.09-5.02,4.79,0,2.7,1.92,4.84,4.88,4.88,1.31.02,2.83-.35,4.15-1.73,1.05,1.24,2.1,2.48,3.13,3.72-2.09,1.7-4.24,2.87-7.35,2.82-6.32-.09-10.51-4.46-10.58-9.67-.07-5.2,4.21-9.71,10.87-9.62Z"/>
        <path class="cls-1" d="M112.01,59.2c.24-6.23.47-12.46.71-18.69,4.76.18,9.53.44,14.28.78-.11,1.6-.23,3.2-.34,4.8-2.76-.2-5.53-.36-8.3-.51-.04.81-.08,1.62-.13,2.43,2.4.12,4.8.27,7.2.43-.1,1.42-.19,2.84-.29,4.27-2.38-.16-4.75-.3-7.13-.43-.04.79-.08,1.58-.12,2.37,2.71.14,5.42.31,8.12.5-.11,1.6-.23,3.2-.34,4.8-4.56-.32-9.12-.57-13.68-.74Z"/>
        <path class="cls-1" d="M135.12,54.39c-.19,2.09-.38,4.19-.58,6.28-1.88-.17-3.76-.33-5.63-.48.49-6.22.98-12.43,1.46-18.65,3.18.25,6.35.53,9.52.85,4.57.46,6.66,3.68,6.24,7.23-.32,2.73-2,4.55-4.58,5.05.06,1.78.83,2.7,1.94,2.82.65.07,1.37-.03,2.13-.4.44,1.24.87,2.49,1.3,3.73-1.48.76-3.17,1.08-5.07.87-4.86-.52-5.33-5.24-5.37-7.18-.45-.04-.91-.09-1.36-.13ZM135.47,50.53c.99.09,1.98.19,2.97.28.99.1,1.79-.73,1.89-1.64.1-.98-.52-1.96-1.52-2.06-1-.1-1.99-.19-2.99-.29-.11,1.23-.23,2.47-.34,3.7Z"/>
        <path class="cls-1" d="M148.68,62.21c.78-6.19,1.56-12.37,2.34-18.56,3.06.39,6.12.81,9.18,1.26,5.71.84,9.22,5.72,8.33,10.8-.89,5.11-5.64,8.51-11.06,7.71-2.93-.43-5.86-.83-8.79-1.2ZM156.22,49.2c-.42,3-.84,6-1.26,9,.81.11,1.62.23,2.43.35,2.91.42,4.99-1.05,5.43-3.77.44-2.74-1.13-4.81-4.12-5.22-.83-.12-1.65-.24-2.48-.35Z"/>
        <path class="cls-1" d="M169.4,55.86c.87-5.13,5.57-8.85,12.14-7.56,6.56,1.31,9.51,6.54,8.35,11.62-1.16,5.09-5.87,8.55-12.1,7.31-6.23-1.23-9.26-6.22-8.39-11.37ZM184.21,58.69c.54-2.56-.67-5.09-3.61-5.67-2.94-.58-5.02,1.29-5.5,3.87-.48,2.58.75,5.06,3.62,5.62,2.86.57,4.95-1.25,5.49-3.82Z"/>
      </g>
      <g>
        <g>
          <path class="cls-1" d="M31.33,76.13s-.05,0-.08,0c-.06-.04-.13-.07-.21-.1-.08-.03-.17-.05-.25-.07-.09-.02-.19-.03-.28-.03-.09,0-.2,0-.32.02-.33.04-.61.16-.85.35-.24.19-.42.43-.53.72-.12.29-.15.6-.11.94.05.36.16.66.36.92.19.26.43.45.73.58.29.12.62.16.97.12.1-.01.2-.04.3-.07.1-.03.19-.07.26-.11.16-.08.28-.19.35-.31.03,0,.05,0,.08,0,.07.57.14,1.15.21,1.72-.25.11-.59.19-1,.24-.69.09-1.31.02-1.87-.19-.56-.21-1.02-.55-1.38-1-.36-.46-.58-1.01-.67-1.67-.09-.65-.01-1.24.22-1.77.23-.53.6-.96,1.1-1.3.5-.34,1.1-.56,1.8-.64.15-.02.29-.03.4-.04.12,0,.21-.01.28-.02.08-.01.18-.04.28-.08.07.6.15,1.2.22,1.8Z"/>
          <path class="cls-1" d="M39.46,79.29c.11.17.21.29.3.38.1.09.18.15.24.17,0,.02,0,.05,0,.07-.74.08-1.48.16-2.22.24,0-.03,0-.05,0-.07.08-.07.12-.17.13-.29,0-.12-.04-.26-.15-.42-.02-.04-.05-.07-.07-.11-.93.1-1.87.21-2.8.32-.01.04-.03.08-.04.12-.07.19-.08.34-.05.45.03.12.1.2.19.24,0,.02,0,.05,0,.07-.73.09-1.46.17-2.18.26,0-.03,0-.05,0-.07.14-.1.29-.35.44-.76.77-2.07,1.56-4.14,2.35-6.2.04,0,.07,0,.1-.01,1.26,1.86,2.52,3.72,3.76,5.59ZM35.35,78.3c.54-.06,1.08-.12,1.62-.19-.33-.53-.67-1.06-1.01-1.58-.2.59-.41,1.18-.61,1.77Z"/>
          <path class="cls-1" d="M40.53,74.47c-.03-.29-.08-.52-.16-.68-.07-.16-.16-.27-.27-.35,0-.02,0-.05,0-.07.87-.09,1.73-.18,2.6-.27.85-.09,1.53.04,2.03.39.5.34.78.87.85,1.59.04.38-.01.73-.14,1.04-.13.31-.33.58-.6.8.36.61.71,1.22,1.07,1.83.08.13.16.23.25.31.09.07.16.12.21.15,0,.03,0,.05,0,.08-.72.07-1.45.14-2.17.21,0-.02,0-.05,0-.08.07-.04.12-.11.17-.2.04-.1.02-.22-.06-.38-.25-.45-.5-.9-.75-1.35-.14.03-.29.05-.44.06-.24.02-.47.05-.71.07.03.3.06.59.09.89.03.29.08.51.14.68.06.16.15.28.25.35,0,.03,0,.05,0,.08-.69.07-1.39.14-2.08.22,0-.03,0-.05,0-.07.09-.09.14-.22.18-.4.03-.17.03-.4,0-.69-.15-1.4-.3-2.8-.44-4.2ZM42.69,74.43c-.21.02-.41.04-.62.06.06.62.13,1.24.19,1.87.21-.02.41-.04.62-.06.81-.08,1.18-.43,1.12-1.06-.06-.62-.5-.89-1.31-.81Z"/>
          <path class="cls-1" d="M52.45,77.59c.02.29.07.51.13.68.06.17.15.28.25.36,0,.03,0,.05,0,.08-.7.06-1.39.12-2.09.18,0-.03,0-.05,0-.08.09-.09.15-.22.18-.39.03-.17.04-.4.01-.69-.03-.37-.06-.74-.1-1.11-.72-.5-1.44-.99-2.16-1.49.08.92.17,1.85.25,2.77.03.29.07.51.13.68.06.16.14.28.24.36,0,.03,0,.05,0,.08-.69.06-1.38.13-2.08.19,0-.03,0-.05,0-.08.09-.09.15-.22.18-.4.03-.17.04-.4.01-.69-.13-1.38-.26-2.75-.38-4.13-.03-.3-.08-.54-.15-.72-.07-.18-.17-.31-.29-.38,0-.03,0-.05,0-.08.61-.06,1.22-.11,1.82-.17,0,.02,0,.04,0,.06-.14.33-.06.61.26.84.67.46,1.34.92,2.01,1.38-.04-.44-.08-.88-.11-1.32-.03-.29-.07-.52-.13-.68-.06-.16-.14-.28-.25-.35,0-.03,0-.05,0-.08.7-.06,1.41-.12,2.11-.18,0,.03,0,.05,0,.08-.09.09-.15.22-.19.39-.04.17-.04.4-.02.7.12,1.4.23,2.81.35,4.21Z"/>
          <path class="cls-1" d="M53.9,73.24c-.02-.29-.07-.52-.13-.68-.06-.16-.15-.28-.25-.35,0-.03,0-.05,0-.08.7-.06,1.41-.11,2.11-.17,0,.03,0,.05,0,.08-.09.09-.15.22-.19.39-.04.17-.04.4-.02.7.11,1.4.22,2.81.32,4.21.02.29.06.52.12.68.06.17.14.29.24.36,0,.03,0,.05,0,.08-.7.05-1.39.11-2.09.16,0-.02,0-.05,0-.08.09-.09.15-.22.19-.39.04-.17.04-.4.02-.69-.11-1.4-.22-2.81-.34-4.21Z"/>
          <path class="cls-1" d="M61.51,73.28s-.05,0-.08,0c-.05-.04-.12-.08-.2-.11-.08-.04-.16-.06-.24-.08-.09-.03-.18-.04-.28-.05-.09,0-.2,0-.32,0-.33.02-.62.12-.87.3-.25.18-.44.41-.57.69-.13.28-.19.59-.16.93.03.36.13.67.3.94.17.27.4.48.69.62.29.14.61.2.96.18.1,0,.2-.02.3-.05.1-.03.19-.06.27-.1.17-.07.29-.17.37-.29.03,0,.05,0,.08,0,.04.58.07,1.15.11,1.73-.26.09-.6.15-1.01.18-.69.05-1.31-.05-1.86-.3-.55-.25-.98-.61-1.31-1.08-.33-.48-.52-1.04-.57-1.7-.05-.66.06-1.24.32-1.75.26-.51.65-.92,1.17-1.23.52-.31,1.13-.49,1.83-.54.15-.01.29-.01.4-.01.12,0,.21,0,.28,0,.08,0,.18-.03.28-.07.04.6.08,1.2.12,1.81Z"/>
          <path class="cls-1" d="M63,72.59c-.02-.3-.06-.52-.13-.69-.07-.16-.16-.28-.26-.36,0-.03,0-.05,0-.08,1.09-.07,2.18-.13,3.26-.19.15,0,.29-.02.43-.04.14-.02.27-.05.38-.08.03.59.06,1.17.1,1.76-.03,0-.05,0-.08,0-.09-.1-.22-.17-.39-.21-.17-.04-.41-.05-.71-.03-.36.02-.71.04-1.07.06.03.52.06,1.05.09,1.57.55-.03,1.1-.06,1.65-.09.23-.01.42-.04.55-.08.13-.04.23-.09.29-.16.03,0,.05,0,.08,0,.03.56.06,1.11.09,1.67-.03,0-.05,0-.08,0-.07-.05-.17-.09-.3-.12-.13-.03-.32-.03-.55-.02-.55.03-1.09.06-1.64.09.02.29.03.58.05.87.64-.04,1.28-.07,1.91-.11.57-.03.92-.15,1.06-.36.03,0,.05,0,.08,0,.03.59.06,1.17.09,1.76-.11-.03-.24-.04-.38-.04-.15,0-.29,0-.44,0-1.36.07-2.71.15-4.06.24,0-.03,0-.05,0-.08.1-.09.17-.22.21-.39.05-.17.06-.4.04-.69-.09-1.41-.17-2.81-.26-4.22Z"/>
          <path class="cls-1" d="M69.06,72.25c-.01-.3-.06-.52-.12-.69-.07-.16-.15-.28-.25-.36,0-.03,0-.05,0-.08.87-.04,1.74-.09,2.6-.13.86-.04,1.52.13,2,.5.48.37.73.91.76,1.63.02.38-.05.73-.2,1.03-.15.3-.36.56-.64.77.32.63.64,1.26.96,1.89.07.14.15.24.23.32.09.08.15.13.21.16,0,.03,0,.05,0,.08-.73.03-1.45.06-2.18.09,0-.03,0-.05,0-.08.07-.03.13-.1.18-.19.05-.09.04-.22-.04-.38-.22-.46-.45-.92-.67-1.39-.15.02-.29.03-.45.04-.24.01-.47.02-.71.03.01.3.03.6.04.89.01.29.05.52.1.68.06.17.13.29.23.37,0,.03,0,.05,0,.08-.7.03-1.39.07-2.09.1,0-.03,0-.05,0-.08.09-.09.16-.22.2-.39.04-.17.06-.4.04-.69-.07-1.41-.14-2.81-.21-4.22ZM71.22,72.33c-.21,0-.41.02-.62.03.03.62.06,1.25.09,1.87.21,0,.41-.02.62-.03.81-.04,1.2-.37,1.18-1-.03-.62-.45-.92-1.26-.88Z"/>
          <path class="cls-1" d="M75.58,71.97c-.01-.3-.05-.53-.1-.69-.06-.16-.14-.29-.23-.36,0-.03,0-.05,0-.08.71-.03,1.41-.05,2.12-.08,0,.03,0,.05,0,.08-.09.08-.16.21-.2.38-.04.17-.06.4-.05.7.05,1.41.1,2.81.15,4.22,0,.29.04.52.09.69.05.17.13.29.23.37,0,.03,0,.05,0,.08-.7.02-1.39.05-2.09.08,0-.03,0-.05,0-.08.09-.09.16-.21.2-.39.04-.17.06-.4.05-.69-.05-1.41-.11-2.81-.16-4.22ZM76.04,68.54c.56-.02,1.13-.04,1.69-.06-.43.59-.85,1.19-1.28,1.78-.32.01-.63.02-.95.03.18-.59.35-1.17.53-1.76Z"/>
          <path class="cls-1" d="M85.11,76.37c.09.17.18.31.27.41.09.1.16.16.23.19,0,.03,0,.05,0,.08-.74.01-1.49.03-2.23.05,0-.03,0-.05,0-.08.09-.06.14-.16.15-.27.02-.12-.02-.26-.11-.44-.02-.04-.04-.07-.06-.11-.94.02-1.88.05-2.81.07-.02.04-.04.08-.05.11-.08.18-.11.33-.09.45.02.12.08.21.17.26,0,.03,0,.05,0,.08-.73.02-1.46.04-2.19.07,0-.03,0-.05,0-.08.15-.09.32-.32.51-.71.95-1.99,1.92-3.98,2.89-5.97.04,0,.07,0,.11,0,1.09,1.96,2.17,3.93,3.24,5.9ZM81.11,75.01c.54-.01,1.08-.03,1.62-.04-.29-.56-.57-1.11-.86-1.67-.26.57-.51,1.14-.76,1.71Z"/>
          <path class="cls-1" d="M88.99,71.64c0-.3-.03-.53-.09-.69-.06-.17-.14-.29-.24-.37,0-.03,0-.05,0-.08,1.09-.01,2.18-.02,3.27-.03.15,0,.29,0,.44-.02.14-.01.27-.03.39-.06,0,.59,0,1.18,0,1.76-.03,0-.05,0-.08,0-.08-.11-.21-.18-.38-.23-.17-.05-.41-.07-.71-.07-.36,0-.71,0-1.07,0,0,.52,0,1.05.01,1.57.55,0,1.1,0,1.65-.01.23,0,.42-.02.55-.05.13-.03.23-.08.29-.14.03,0,.05,0,.08,0,0,.56,0,1.11,0,1.67-.03,0-.05,0-.08,0-.06-.06-.16-.1-.3-.14-.13-.03-.32-.05-.55-.05-.55,0-1.1,0-1.64.01,0,.29,0,.58,0,.87.64,0,1.28,0,1.92-.01.57,0,.93-.1,1.07-.31.03,0,.05,0,.08,0,0,.59,0,1.18,0,1.76-.11-.03-.23-.05-.38-.06-.15,0-.29-.01-.44-.01-1.36,0-2.71.02-4.07.03,0-.03,0-.05,0-.08.1-.08.18-.21.23-.38.05-.17.08-.4.08-.69-.02-1.41-.03-2.82-.05-4.22Z"/>
          <path class="cls-1" d="M98.12,72.08s-.05,0-.08,0c-.04-.05-.1-.1-.17-.14-.07-.04-.14-.08-.22-.11-.06-.02-.12-.04-.19-.05-.07-.02-.16-.02-.26-.02-.21,0-.38.05-.5.15-.12.1-.18.22-.18.37,0,.13.04.25.13.35.09.1.24.22.45.37.13.09.26.18.39.27.34.24.6.51.79.82.19.31.29.65.28,1.03,0,.57-.22,1.04-.63,1.4-.42.36-1.02.54-1.81.54-.21,0-.43-.01-.66-.04-.22-.03-.4-.06-.53-.09,0-.55,0-1.09,0-1.64.03,0,.05,0,.08,0,.06.06.13.12.19.16.06.04.12.09.18.12.08.04.18.08.29.11.11.03.24.04.39.04.25,0,.44-.06.59-.19.15-.13.22-.28.22-.46,0-.16-.05-.31-.16-.45-.11-.14-.29-.29-.54-.47-.13-.09-.26-.18-.39-.26-.33-.24-.58-.49-.74-.76-.16-.27-.24-.57-.24-.9,0-.55.21-.99.62-1.32.41-.33,1-.49,1.75-.49.15,0,.27,0,.37.02.1.01.19.02.26.02.1,0,.2-.01.32-.05,0,.56,0,1.13-.01,1.69Z"/>
          <path class="cls-1" d="M100.07,71.63c0-.3-.02-.53-.08-.69-.06-.17-.13-.29-.23-.37,0-.03,0-.05,0-.08.84,0,1.68.02,2.52.03.85.01,1.51.24,1.98.67.47.43.7,1.02.68,1.77-.01.74-.27,1.32-.75,1.74-.49.42-1.15.62-1.98.61-.22,0-.44,0-.66,0,0,.19,0,.38,0,.58,0,.3.02.54.08.7.05.17.13.29.24.37,0,.03,0,.05,0,.08-.71,0-1.43-.02-2.14-.02,0-.03,0-.05,0-.08.1-.08.17-.21.22-.38.05-.17.08-.4.08-.69.01-1.41.03-2.82.04-4.22ZM103.09,72.12c-.2-.19-.5-.28-.89-.29-.2,0-.4,0-.6,0,0,.71-.02,1.43-.03,2.14.2,0,.4,0,.6,0,.8.01,1.2-.34,1.22-1.05,0-.35-.09-.62-.29-.81Z"/>
          <path class="cls-1" d="M106.36,71.72c0-.3-.02-.53-.07-.69-.05-.17-.13-.29-.23-.38,0-.03,0-.05,0-.08,1.09.02,2.18.05,3.27.08.15,0,.29,0,.44,0,.14,0,.27-.02.39-.05-.02.59-.03,1.18-.05,1.76-.03,0-.05,0-.08,0-.08-.11-.2-.19-.38-.24-.17-.05-.41-.08-.7-.09-.36,0-.71-.02-1.07-.03-.01.52-.03,1.05-.04,1.57.55.01,1.1.03,1.65.04.23,0,.42,0,.55-.03.13-.03.23-.07.3-.13.03,0,.05,0,.08,0-.02.56-.03,1.11-.05,1.67-.03,0-.05,0-.08,0-.06-.06-.16-.11-.29-.15-.13-.04-.32-.06-.55-.07-.55-.02-1.1-.03-1.64-.04,0,.29-.01.58-.02.87.64.02,1.28.03,1.92.05.57.02.93-.07,1.08-.27.03,0,.05,0,.08,0-.02.59-.04,1.18-.05,1.76-.11-.03-.23-.06-.38-.07-.14-.01-.29-.02-.43-.03-1.36-.04-2.71-.07-4.07-.1,0-.03,0-.05,0-.08.1-.08.18-.2.24-.37.06-.17.09-.4.1-.69.03-1.41.06-2.82.09-4.22Z"/>
          <path class="cls-1" d="M116.51,72.64s-.05,0-.08,0c-.05-.05-.11-.09-.19-.14-.08-.04-.15-.08-.23-.11-.09-.03-.18-.06-.27-.08-.09-.02-.2-.03-.32-.03-.33-.01-.63.06-.9.21-.27.15-.48.36-.64.62-.16.26-.25.57-.26.91-.01.36.05.68.2.97.14.29.35.52.62.69.27.17.58.26.93.28.1,0,.2,0,.3-.02.1-.02.19-.04.28-.07.17-.06.31-.14.4-.25.03,0,.05,0,.08,0-.02.58-.05,1.16-.07,1.73-.27.06-.61.09-1.03.07-.69-.03-1.3-.19-1.81-.49-.52-.3-.91-.71-1.19-1.22-.28-.51-.41-1.09-.38-1.75.02-.66.19-1.23.51-1.71.32-.48.75-.85,1.29-1.1.55-.25,1.17-.37,1.87-.34.15,0,.29.02.4.03.11.01.21.02.28.03.08,0,.18,0,.29-.04-.02.6-.05,1.21-.08,1.81Z"/>
          <path class="cls-1" d="M118.07,72.11c.01-.3,0-.53-.05-.7-.04-.17-.11-.3-.2-.38,0-.03,0-.05,0-.08.71.03,1.41.06,2.12.1,0,.03,0,.05,0,.08-.1.08-.18.2-.23.36-.06.16-.09.39-.1.69-.07,1.41-.13,2.81-.2,4.22-.01.29,0,.52.04.69.04.17.1.3.19.39,0,.03,0,.05,0,.08-.7-.03-1.39-.07-2.09-.1,0-.03,0-.05,0-.08.1-.08.18-.2.23-.37.06-.17.09-.4.11-.68.06-1.41.13-2.81.19-4.22Z"/>
          <path class="cls-1" d="M127.21,77.29c.08.18.16.32.23.43.08.11.15.18.21.21,0,.03,0,.05,0,.08-.74-.05-1.49-.09-2.23-.14,0-.03,0-.05,0-.08.09-.06.15-.14.18-.26.03-.11,0-.26-.08-.44-.02-.04-.03-.08-.05-.12-.94-.06-1.87-.11-2.81-.16-.02.04-.04.07-.06.11-.1.17-.14.32-.13.44.01.12.06.21.15.27,0,.03,0,.05,0,.08-.73-.04-1.46-.08-2.19-.11,0-.03,0-.05,0-.08.16-.07.34-.3.56-.67,1.11-1.91,2.24-3.81,3.37-5.71.04,0,.07,0,.11,0,.93,2.05,1.84,4.09,2.75,6.14ZM123.34,75.6c.54.03,1.08.06,1.62.09-.24-.58-.48-1.15-.72-1.73-.3.55-.6,1.09-.9,1.64Z"/>
          <path class="cls-1" d="M129.09,72.72c.02-.29,0-.53-.03-.7-.04-.17-.1-.3-.2-.39,0-.03,0-.05,0-.08.72.05,1.44.1,2.16.15,0,.03,0,.05,0,.08-.11.07-.2.18-.27.35-.07.16-.11.39-.13.69-.09,1.32-.18,2.65-.27,3.97.58.04,1.17.08,1.75.12.57.04.93-.03,1.09-.22.03,0,.06,0,.09,0-.04.59-.09,1.17-.13,1.76-.11-.04-.24-.07-.38-.09-.14-.02-.29-.04-.43-.05-1.3-.09-2.6-.18-3.9-.27,0-.03,0-.05,0-.08.1-.08.18-.2.25-.36.07-.17.11-.39.13-.68.09-1.41.19-2.81.28-4.22Z"/>
          <path class="cls-1" d="M134.92,73.14c.02-.29.01-.53-.02-.7-.04-.17-.1-.3-.19-.39,0-.03,0-.05,0-.08.7.05,1.41.11,2.11.17,0,.03,0,.05,0,.08-.1.07-.18.19-.24.35-.06.16-.1.39-.13.69-.11,1.4-.23,2.81-.34,4.21-.02.29-.02.52.02.69.03.17.09.3.18.39,0,.02,0,.05,0,.08-.7-.06-1.39-.11-2.09-.16,0-.03,0-.05,0-.08.1-.07.18-.19.25-.36.06-.17.11-.39.13-.68.11-1.4.22-2.81.33-4.21Z"/>
          <path class="cls-1" d="M140.67,73.86c-.51-.05-1.02-.09-1.52-.13-.3-.03-.54-.02-.71.01-.18.03-.31.1-.4.2-.03,0-.05,0-.08,0,.05-.59.1-1.17.15-1.76.11.03.24.06.39.09.15.02.29.04.43.05,1.45.12,2.89.25,4.34.39,0,.03,0,.07,0,.1-1.07,1.58-2.13,3.16-3.18,4.75.53.05,1.07.09,1.6.14.3.03.53.02.71-.01.18-.03.31-.1.4-.19.03,0,.05,0,.08,0-.05.59-.11,1.17-.16,1.76-.11-.04-.24-.07-.38-.1-.14-.02-.29-.04-.43-.05-1.45-.13-2.9-.26-4.35-.38,0-.03,0-.07,0-.1,1.04-1.59,2.09-3.18,3.14-4.77Z"/>
          <path class="cls-1" d="M150.34,79.26c.07.18.14.33.21.44.07.11.14.18.2.22,0,.02,0,.05,0,.07-.74-.08-1.48-.16-2.22-.24,0-.03,0-.05,0-.07.09-.05.16-.14.19-.25.03-.11.01-.26-.06-.45-.01-.04-.03-.08-.04-.12-.93-.1-1.87-.19-2.8-.29-.02.04-.05.07-.07.11-.11.17-.15.31-.15.43,0,.12.05.21.13.28,0,.03,0,.05,0,.08-.73-.07-1.46-.14-2.19-.21,0-.03,0-.05,0-.08.16-.07.36-.28.59-.64,1.2-1.86,2.41-3.71,3.63-5.55.04,0,.07,0,.1.01.83,2.09,1.66,4.17,2.47,6.26ZM146.54,77.41c.54.05,1.08.11,1.62.17-.21-.59-.43-1.18-.64-1.76-.33.53-.65,1.06-.98,1.6Z"/>
          <path class="cls-1" d="M152.42,74.79c.03-.29.03-.53,0-.7-.04-.17-.1-.3-.19-.4,0-.03,0-.05,0-.08.79.09,1.58.18,2.37.27,1.18.14,2.05.53,2.62,1.17.57.64.79,1.48.66,2.5-.13,1.02-.54,1.78-1.24,2.27-.7.49-1.63.66-2.79.53-.78-.09-1.56-.18-2.34-.27,0-.03,0-.05,0-.07.1-.07.19-.19.27-.35.08-.16.13-.39.16-.67.16-1.4.31-2.8.47-4.2ZM154.66,75.3c-.25-.03-.5-.06-.75-.09-.14,1.23-.28,2.46-.42,3.69.25.03.5.06.75.09.57.07,1.04-.05,1.41-.34.38-.29.6-.72.67-1.28.07-.56-.05-1.03-.35-1.4-.3-.37-.73-.59-1.3-.66Z"/>
          <path class="cls-1" d="M164.55,81.01c.06.19.13.34.2.45.07.11.14.19.19.23,0,.02,0,.05-.01.07-.74-.1-1.48-.2-2.22-.3,0-.02,0-.05.01-.07.1-.05.16-.13.2-.25.03-.11.02-.26-.05-.45-.01-.04-.03-.08-.04-.12-.93-.12-1.86-.25-2.8-.36-.02.04-.05.07-.07.11-.11.16-.16.31-.16.43,0,.12.05.21.13.28,0,.03,0,.05,0,.07-.73-.09-1.45-.18-2.18-.27,0-.03,0-.05,0-.07.16-.06.36-.27.61-.63,1.25-1.82,2.51-3.64,3.78-5.45.04,0,.07,0,.1.01.78,2.11,1.54,4.22,2.29,6.33ZM160.8,79.04c.54.07,1.08.14,1.61.21-.2-.59-.39-1.19-.59-1.78-.34.52-.68,1.05-1.02,1.57Z"/>
        </g>
        <g>
          <path class="cls-1" d="M173.77,75.81c.3.75.6,1.51.9,2.26.77.29,1.54.58,2.3.87-.64.51-1.27,1.01-1.91,1.52-.04.81-.08,1.61-.12,2.42-.68-.44-1.37-.88-2.05-1.32-.79.21-1.57.43-2.35.64.2-.78.41-1.56.61-2.35-.45-.67-.91-1.35-1.36-2.02.82-.05,1.64-.1,2.46-.14.51-.63,1.02-1.26,1.53-1.89Z"/>
          <path class="cls-1" d="M18.34,75.81c.51.63,1.02,1.26,1.53,1.9.82.05,1.64.1,2.46.15-.46.67-.92,1.34-1.37,2.02.2.78.4,1.57.6,2.35-.78-.22-1.57-.44-2.35-.65-.69.44-1.37.87-2.06,1.31-.04-.81-.07-1.62-.11-2.42-.63-.51-1.27-1.02-1.9-1.53.77-.29,1.54-.58,2.3-.86.3-.75.6-1.51.91-2.26Z"/>
        </g>
      </g>
      <path class="cls-1" d="M94.58,27.83c20.16,0,39.47,2.01,55.98,5.74-15.73-5.75-35.35-8.89-55.98-8.89s-40.26,3.14-55.98,8.89c16.51-3.74,35.82-5.74,55.98-5.74Z"/>
      <path class="cls-1" d="M120.81,10.82c-.12-1.49-.44-1.68-.73-1.65-.27.02-.42.13-1.02.18-1.83.15-3.62-1.6-3.71-2.63-.18-2.1,2.27-4.76,2.27-4.76,0,0-.62-.23-1.23-.18-1.36.11-2.37.85-2.37.85,0,0,.14-1.08.49-1.86-1.81.15-2.24,2.07-3.8,2.2-8.52.71-16.3-3.78-27.61-2.83-4.78.4-9.37,3.24-10.51,6.51h0c-.19.53-.56.73-1,.77-.44.04-1.06.27-1,.99.04.52.56.7.59,1.01.03.34-.48.49-.57.52,0,0,.24.1.53.08.42-.03.78-.36.75-.7-.04-.48-.4-.5-.42-.71,0-.09.07-.22.26-.23.22-.02.63.24.66.6,0,0,0,0,0,0,.58,6.15,2.04,6.38,2.17,7.88.13,1.52-2.01,2.12-1.92,3.12.04.51.46,1.01.56,2.27.16,1.91-.42,2.39-.4,3,0,.33.74.25.75.69.01.53-.01,1.18.67,1.17,1.33-.03,1.47-.1,1.66-.14.02,0,.03,0,.05-.01.02,0,.05-.01.08-.02.38-.12.56-.3.56-.33,0-.01,0-.03,0-.04h0c-.06-.35-.46-.81-.8-1.48,0,0,0,0,0,0-.01-.02-.02-.05-.03-.07,0,0,0-.02-.01-.02-.05-.1-.09-.2-.14-.31,0,0,0,0,0,0,0,0,0,0,0,0-.13-.33-.24-.71-.27-1.14-.15-1.75.92-4.44,2.81-4.59,0,0-.05.17-.04.34.07.82.85,1.11,1.51,2.54.48,1.04.77,1.88.77,2.12,0,.29.29.34.63.33s.57.17.65.53l.04.14c.08.25.86.4,2.08.37.09,0,.13,0,.13,0,.06-.02.11-.03.16-.05.32-.13.38-.27.38-.27-.1-1.2-2.52-2.11-2.7-4.34-.02-.27-.01-.52.02-.75.18-1.2,1.03-1.81,1.46-2.56,4.18.74,9.37.82,15.2.46.19.28.33.65.38,1.15.11,1.38-.52,4.24-.49,5.44,0,.39.14.44.24.43.35,0,.22.99.23,1.34,0,.18,0,.5.8.48,1.17-.03,1.21-.09,1.89-.19.32-.08.51-.19.58-.29-.04-.46-.34-.75-.65-1.19,0,0,0,0,0,0-.09-.13-.17-.27-.25-.43,0,0,0,0,0,0h0c-.19-.38-.35-.87-.41-1.58-.08-1.01.36-1.73.88-2.44.17.61.29,1.15.32,1.53.13,1.59.12,1.65.14,1.89,0,.21.09.5.26.5.39,0,.56.86.56,1.08s.12.29.3.28c.24,0,1.57-.33,1.71-.39.36-.1.43-.24.43-.25,0,0,0,0,0,0,0,0,0,0,0,0h0s0,0,0,0c0-.07-.02-.13-.03-.2,0,0,0,0,0,0-.01-.06-.03-.12-.05-.18,0,0,0,0,0,0-.02-.06-.05-.11-.07-.17,0,0,0,0,0,0-.03-.05-.06-.11-.09-.16-.41-.66-1.18-1.21-1.33-3.07-.13-1.57.82-2.58.88-4.16,1.23-.19,2.48-.4,6.53-.74,4.56-.38,7.53-3.85,9.34-4,.26-.02.48-.27.36-1.66Z"/>
    </g>
  </g>
</svg>