<?xml version="1.0" encoding="UTF-8"?>
<svg id="Capa_2" data-name="Capa 2" xmlns="http://www.w3.org/2000/svg" viewBox="0 0 198.89 132.74">
  <defs>
    <style>
      .cls-1 {
        fill: #eaeaea;
      }
    </style>
  </defs>
  <g id="Capa_1-2" data-name="Capa 1">
    <g>
      <path class="cls-1" d="M79.12,54.77V.2l-.2-.2h-14.19l-.2.2v47.06c0,5.02,5.86,10.8,9.2,14.12,4.26,4.23,8.08,8.15,14.47,8.59l45.91-.06.34-.21.07-13.86c.02-.51-.48-.61-.89-.61l-54.28-.12c-.08-.05-.22-.27-.23-.35Z"/>
      <path class="cls-1" d="M111.79,0h-28.65l-.2.2v14.19l.2.2h34.92c.53,0,1.28.6,1.5,1.09.73,1.63-.49,2.62-2.04,2.74-6.31.46-13.19-.44-19.52-.01-7.82.53-14.47,7.3-15.07,15.07l.07,17.81.3.24,50.32.03.76-.23.1-14.14-.24-.3-34.59-.06c-2.66-.2-2.86-3.5.02-3.81,11.1-1.2,24.59,3.83,32.03-7.26,3.21-4.78,2.59-7.56-1.08-11.58-4.47-4.92-12.01-13.53-18.83-14.19Z"/>
      <path class="cls-1" d="M6.96,77.89H.2l-.2.2v25.65c0,1.24,1.62,3.34,2.93,3.34h6.89v-5.18h-1.98c-.32,0-.89-.56-.89-.89v-23.12Z"/>
      <path class="cls-1" d="M60.16,93.31c.56-8.02-11.39-9.46-16.16-5.32-1.8,1.56-2.59,4.06-1.89,6.38,1.22,4.02,7.22,4.11,10.51,5.04,1.21.34,1.91.79,1.47,2.23-.65,2.09-7.01,1.7-6.35-1.51h-6.55c-.19,4.51,3.93,7.05,7.98,7.36,5.16.39,12.23-.67,11.64-7.42-.46-5.25-7.4-4.72-10.97-5.94-.98-.34-1.6-.79-1.37-1.92.57-2.78,5.97-2.15,5.26,1.1h6.41Z"/>
      <path class="cls-1" d="M153.2,107.09v-14.8c0-.39-.55-1.96-.75-2.39-2.17-4.57-9.04-4.85-12.35-1.44-.29.3-.72,1.25-1.15,1.17l-1.98-3.28h-4.3l-.2.2v20.33l.2.2h6.75v-12.35c0-.18.43-1.26.57-1.48,1.26-2,4.38-2.22,5.69-.14.14.22.57,1.29.57,1.48v12.28l.2.2h6.75Z"/>
      <path class="cls-1" d="M125.16,107.09h4.23l.2-.2v-20.33l-.2-.2h-6.55l-.2.2v12.28c0,.2-.51,1.3-.66,1.53-1.3,2.02-4.68,1.92-5.74-.32-.09-.18-.43-1.1-.43-1.21v-12.28l-.2-.2h-6.55l-.2.2v14.6c0,3.35,3.66,6,6.77,6.19s5.54-1.15,7.35-3.53l2.18,3.27Z"/>
      <path class="cls-1" d="M68.62,126.05c-.02-3.88-6.68-3.59-6.26.33.09.8.79,1.61,1.54,1.87,1.22.41,4.04-.08,3.9,1.83-.16,2.17-4.69,2.13-4.65-.2h-1.22c.2,2.5,2.78,3.25,4.92,2.66,2.44-.67,3.08-3.93.47-4.84-1.04-.36-3.21-.05-3.66-1.11-1.04-2.46,3.6-3.15,3.86-.59l1.1.06Z"/>
      <path class="cls-1" d="M90.44,131.23v-2.05h.82s0-.96,0-.96h-4.77s0,.96,0,.96h2.86c0,1.24.31,1.61-.92,2.15-3.93,1.69-6.55-2.8-4.32-5.82,1.37-1.86,5-1.41,5.25,1.08h1.22c-.61-4.26-6.67-4.36-8.07-.5-1.46,4.03,1.79,7.69,5.97,6.38.82-.26,1.32-.82,1.97-1.24Z"/>
      <path class="cls-1" d="M136.28,126.05c.09-3.89-6.71-3.56-6.24.3.36,2.98,4.67,1.49,5.32,3,1.12,2.61-4.43,3.26-4.55.52h-1.08c-.15,4.32,8.25,3.39,6.83-.77-.82-2.41-4.76-1.03-5.27-2.65-.76-2.43,3.69-2.96,3.91-.44l1.07.02Z"/>
      <polygon class="cls-1" points="78.58 123.59 73.12 123.59 73.12 132.46 78.71 132.46 78.71 131.5 74.35 131.5 74.35 128.5 78.3 128.5 78.3 127.41 74.35 127.41 74.35 124.55 78.58 124.55 78.58 123.59"/>
      <path class="cls-1" d="M96.04,123.59h-1.09v6.34c0,.13.29.8.38.98,1.31,2.57,5.77,2.39,6.74-.41.05-.14.24-.78.24-.85v-6.07h-1.09v5.66c0,.09-.25.92-.31,1.06-.76,1.73-3.73,1.79-4.54.11-.08-.17-.33-.91-.33-1.03v-5.8Z"/>
      <path class="cls-1" d="M111.79,0c6.82.66,14.35,9.27,18.83,14.19,3.66,4.03,4.28,6.8,1.08,11.58-7.44,11.09-20.93,6.06-32.03,7.26-2.88.31-2.68,3.61-.02,3.81l34.59.06.24.3-.1,14.14-.76.23-50.32-.03-.3-.24-.07-17.81c.6-7.77,7.26-14.55,15.07-15.07,6.32-.43,13.21.47,19.52.01,1.55-.11,2.77-1.1,2.04-2.74-.22-.49-.97-1.09-1.5-1.09h-34.92l-.2-.2V.2l.2-.2h28.65Z"/>
      <path class="cls-1" d="M79.12,54.77c.01.08.15.3.23.35l54.28.12c.4,0,.91.11.89.61l-.07,13.86-.34.21-45.91.06c-6.39-.44-10.21-4.36-14.47-8.59-3.35-3.32-9.2-9.1-9.2-14.12V.2l.2-.2h14.19l.2.2v54.57Z"/>
      <path class="cls-1" d="M99.17,103.81l-.42.09c-2.15,4.44-8.5,4.51-11.45.8-2.7-3.4-2.63-12.5.02-15.93,2.42-3.14,7.99-3.64,10.61-.56.47.55.73,1.33,1.3,1.7.26-.06,1.77-2.87,2.11-3.31.06-.08.27-.24.35-.24h4.23l.2.2v21.55c0,4.83-4.01,6.38-8.12,6.61-2.56.14-5.25-.09-7.82-.02l-1.25-5.16h7.03c.44,0,1.75-.44,2.12-.75.47-.39,1.09-1.6,1.09-2.19v-2.8ZM98.16,92.55c-1.55-1.25-4.57-1.04-5.47.9-.67,1.44-.75,5.62.14,6.95,1.33,1.97,5.16,1.78,6.09-.44.37-.89.35-4.28.24-5.35-.07-.72-.44-1.6-1.01-2.06Z"/>
      <path class="cls-1" d="M175.98,77.89v29.19h-4.43l-2.33-3.55c-.18-.01-.22-.03-.35.09-.22.21-.61,1.06-.89,1.4-2.92,3.6-8.9,2.87-11.22-1.04s-2.17-13.01,1.29-16.12c3.02-2.71,9.07-2.36,10.69,1.75.18.18.41-.25.41-.34v-11.39h6.82ZM164.75,91.84c-1.76.3-2.44,1.84-2.56,3.44-.23,2.98-.26,6.71,3.75,6.48,1.98-.11,3.05-1.3,3.21-3.21.29-3.39.23-7.5-4.4-6.72Z"/>
      <path class="cls-1" d="M194.46,107.09c-.38-.06-1.36-2-1.65-2.44-.25-.38-.48-.78-.81-1.1-.19-.04-1.47,1.92-1.84,2.25-2.69,2.49-7.58,1.86-9.89-.89-2.94-3.5-2.88-12.93.07-16.44,2.54-3.01,8.17-3.2,10.64,0,.29.38.67,1.53,1.16,1.43l2.32-3.55h4.23l.2.2v20.53h-4.43ZM187.67,91.84c-3.05.48-3.07,5.19-2.5,7.48.79,3.15,5.7,3.25,6.59.44.28-.87.29-4.42.16-5.41-.28-2.11-2.38-2.8-4.25-2.5Z"/>
      <path class="cls-1" d="M27.08,107.09c-.34-.1-1.73-2.85-2.13-3.32-.25-.3-.31-.35-.57-.06-.35.39-.66,1.09-1.05,1.53-2.95,3.37-8.92,2.55-11.07-1.34-2.64-4.79-2.3-17.03,5-17.69,3.77-.34,5.22.47,7.13,3.51.22.35.33.2.56-.05.44-.46,1.81-3.32,2.27-3.32h4.3v20.74h-4.43ZM20.43,91.84c-1.79.26-2.54,1.63-2.69,3.31-.27,2.96-.22,6.86,3.75,6.61,1.98-.12,3.06-1.24,3.21-3.2.26-3.35.31-7.39-4.27-6.72Z"/>
      <path class="cls-1" d="M125.16,107.09l-2.18-3.27c-1.81,2.38-4.3,3.71-7.35,3.53s-6.77-2.84-6.77-6.19v-14.6l.2-.2h6.55l.2.2v12.28c0,.11.34,1.03.43,1.21,1.06,2.23,4.44,2.34,5.74.32.15-.23.66-1.32.66-1.53v-12.28l.2-.2h6.55l.2.2v20.33l-.2.2h-4.23Z"/>
      <path class="cls-1" d="M153.2,107.09h-6.75l-.2-.2v-12.28c0-.18-.43-1.26-.57-1.48-1.31-2.08-4.42-1.86-5.69.14-.14.22-.57,1.29-.57,1.48v12.35h-6.75l-.2-.2v-20.33l.2-.2h4.3l1.98,3.28c.43.08.86-.87,1.15-1.17,3.31-3.41,10.18-3.13,12.35,1.44.2.43.75,1.99.75,2.39v14.8Z"/>
      <path class="cls-1" d="M83.21,98.49h-13.44l-.18.23c-.56,3.11,3.37,4.36,5.56,2.83.2-.14.83-.88.9-.88h7.03c-.24,2.61-2.5,4.81-4.84,5.73-5.49,2.16-13.94.71-15.4-5.89-.38-1.71-.41-5.92-.03-7.62,2.04-8.97,17.32-9.23,19.99-.75.1.33.4,1.38.4,1.64v4.71ZM76.26,95.08c.89-5.12-7.55-5.16-6.68,0h6.68Z"/>
      <path class="cls-1" d="M60.16,93.31h-6.41c.71-3.25-4.69-3.88-5.26-1.1-.23,1.14.39,1.59,1.37,1.92,3.57,1.23,10.52.69,10.97,5.94.59,6.75-6.49,7.81-11.64,7.42-4.05-.31-8.17-2.85-7.98-7.36h6.55c-.66,3.21,5.7,3.6,6.35,1.51.44-1.44-.26-1.89-1.47-2.23-3.3-.92-9.3-1.02-10.51-5.04-.7-2.32.09-4.82,1.89-6.38,4.77-4.15,16.72-2.7,16.16,5.32Z"/>
      <path class="cls-1" d="M6.96,77.89v23.12c0,.32.56.89.89.89h1.98v5.18H2.93c-1.31,0-2.93-2.1-2.93-3.34v-25.65l.2-.2h6.75Z"/>
      <path class="cls-1" d="M90.44,131.23c-.65.42-1.15.98-1.97,1.24-4.18,1.32-7.43-2.34-5.97-6.38,1.4-3.86,7.46-3.76,8.07.5h-1.22c-.25-2.49-3.88-2.94-5.25-1.08-2.23,3.02.39,7.52,4.32,5.82,1.23-.53.91-.91.92-2.15h-2.86v-.95s4.78,0,4.78,0v.96s-.82,0-.82,0v2.05Z"/>
      <path class="cls-1" d="M124.63,124.34c2.5,2,1.86,6.73-1.1,7.99-3.9,1.66-7.54-1.9-6.39-5.84.94-3.21,4.97-4.17,7.49-2.15ZM120.83,124.45c-3.69.54-3.62,6.96.52,7.2,4.83.27,4.99-8-.52-7.2Z"/>
      <path class="cls-1" d="M110.7,123.46c.9.09,2.27.61,2.5,1.6.3,1.34,0,2.83-1.35,3.4l1.65,3.94-1.21.05-1.73-3.8h-2.52v3.82h-1.23v-9c1.25.09,2.66-.13,3.89,0ZM108.04,127.55h3.21c.84,0,1.18-1.89.54-2.58-.08-.08-.64-.42-.68-.42h-3.07v3Z"/>
      <path class="cls-1" d="M136.28,126.05l-1.07-.02c-.22-2.53-4.67-2-3.91.44.5,1.62,4.44.24,5.27,2.65,1.42,4.16-6.98,5.09-6.83.76h1.08c.12,2.75,5.67,2.1,4.55-.51-.65-1.52-4.96-.02-5.32-3-.47-3.87,6.33-4.19,6.24-.3Z"/>
      <path class="cls-1" d="M68.62,126.05l-1.1-.06c-.26-2.56-4.9-1.86-3.86.59.45,1.06,2.62.75,3.66,1.11,2.62.91,1.97,4.18-.47,4.84-2.14.59-4.72-.16-4.92-2.67h1.22c-.04,2.33,4.5,2.37,4.65.2.14-1.91-2.69-1.42-3.9-1.83-.75-.25-1.46-1.07-1.54-1.87-.42-3.91,6.24-4.21,6.26-.33Z"/>
      <polygon class="cls-1" points="78.58 123.59 78.58 124.55 74.35 124.55 74.35 127.41 78.3 127.41 78.3 128.5 74.35 128.5 74.35 131.5 78.71 131.5 78.71 132.46 73.12 132.46 73.12 123.59 78.58 123.59"/>
      <path class="cls-1" d="M96.04,123.59v5.8c0,.13.25.86.33,1.03.82,1.67,3.78,1.62,4.54-.11.06-.14.31-.97.31-1.06v-5.66h1.09v6.07c0,.06-.2.71-.24.85-.97,2.79-5.43,2.97-6.74.41-.09-.18-.38-.85-.38-.98v-6.34h1.09Z"/>
    </g>
  </g>
</svg>