<?xml version="1.0" encoding="UTF-8"?>
<svg id="Capa_2" data-name="Capa 2" xmlns="http://www.w3.org/2000/svg" viewBox="0 0 196.66 101.16">
  <defs>
    <style>
      .cls-1 {
        fill: #eaeaea;
      }
    </style>
  </defs>
  <g id="Capa_1-2" data-name="Capa 1">
    <g>
      <path class="cls-1" d="M151.99,37.76l-2.57,5.93c-1.62,3.56-5.35,11.6-8.9,13.27-3.7,1.74-5.18-2.25-4.84-5.23l4.67-30.32c.32-3.23-1.04-3.38-2.63-.93-1.29,1.99-2.21,4.44-2.69,6.75l-4.63,31.1-9.24,1.89,5.37-36.92c0-2.43-1.57-1.57-2.63-.35-1.38,1.58-2.07,3.76-2.6,5.75-1.44,9.21-2.62,18.47-4.02,27.68-.22,1.42-.37,3.22-.71,4.57-.03.1-.03.22-.14.28l-9.28,1.98,2.78-19.58c-1.73,5.17-3.93,10.35-6.65,15.07-1.49,2.59-4.93,8.76-8.59,7.66-1.83-.55-2.06-2.78-1.97-4.39.25-4.28,1.19-9.01,1.68-13.33.03-.29.07-.6.1-.89,0-.11.09-.36-.09-.33-1.43,4.11-3.29,8.18-5.32,12.03-1.46,2.77-4.98,9.5-8.09,10.3-3.02.78-3.86-2.33-3.7-4.69.32-4.7,1.63-9.69,1.99-14.41,0-.11.08-.46-.1-.45-1.75,4.49-3.69,8.95-5.92,13.22-1.28,2.46-4.11,7.97-6.53,9.18-1.96.98-3.88.37-4.57-1.77s.44-8.53.7-11.04c.03-.27.05-.55.07-.82,0-.11.12-.34-.07-.32-1.68,4.28-3.87,8.62-6.32,12.51-1.16,1.83-2.71,4.2-4.94,4.81-3.77,1.02-3.88-3.96-3.56-6.44l5.67-39.5,9.24-1.9-4.64,32.13c.07.29.04.68.33.85.73.25,1.71-1.16,2.04-1.71,1.95-3.27,3.01-7.6,3.94-11.26l2.95-20.91,9.2-2.08c0,.21,0,.42-.01.63-.55,5.95-1.65,12.32-2.49,18.29-.52,3.71-1.49,8.01-1.77,11.64-.15,1.87.18,3.58,1.93,1.43,2.03-2.5,4.84-11.69,5.78-15.1,1.6-5.84,1.97-12.21,2.88-18.19l9.2-1.98-4.37,31.26c-.03.66.02,1.94.99,1.58,1.16-.43,2.84-4.51,3.33-5.71,5.6-13.65,6.06-28.74,8.42-43.17.04-.22.05-.67.25-.74l8.88-1.81-6.46,45.67c.03.78-.18,2.04.65,2.44.96.09,2.21-2.36,2.55-3.12,1.75-3.87,2.89-8.25,4.51-12.19l2.9-18.79,8.89-1.88-1,7.55c1.27-2.2,2.7-4.4,4.38-6.31,1.57-1.78,5.51-5.69,8-3.63,1.78,1.47,1.34,5.15,1.44,7.2,0,.11-.06.27.1.25,1.85-3.23,4-6.95,6.97-9.28,4.68-3.68,8.01-1.26,7.55,4.37l-3.68,24.55c-.1,1.91.66,3.4,2.11,1.21,2.97-4.51,3.37-10.41,4.66-15.52,1.88-7.45,5.74-17.71,13.59-20.6,12-4.41,13.38,10.52,10.31,18.36-2.59,6.63-7.82,10.87-15.05,11.34-.07.21-.14.44-.18.66-.45,2.12-.92,7.59-.37,9.56.46,1.64,1.61,3.5,3.48,3.68,3.44.32,5.74-3.53,7.55-5.87.14-.38-.16-1.03-.22-1.46-.22-1.58-.41-3.25,0-4.81.82-3.15,4.38-5.98,7.72-5.05l4.74-8.05.02-.32c-.75-1.68-1.41-3.41-1.86-5.2-1.42-5.65-1.71-13.38,3.98-16.78,2.3-1.38,6.21-2.11,7.87.57,2.39,3.87-1.32,9.43-3.19,12.84,1.54,3.6,3.1,7.23,4.06,11.04,1.5,5.94,1.17,11.3-2.78,16.19s-14.52,10.21-19.13,3.62c-.13-.19-.51-1.03-.7-.98-.6.73-1.13,1.52-1.74,2.23-1.22,1.44-2.51,2.82-4.14,3.81-2.94,1.78-7.65,3.06-10.66.86-3.94-2.88-4.7-9.13-4.68-13.66ZM191.07,12.81c.96-2.44,2.95-5.89,2.56-8.57-.29-1.98-2.29-2.64-3.75-1.32-2.02,1.82-.56,6.41.38,8.57.12.27.4.98.53,1.16.08.12.12.2.28.16ZM162.43,33.28c1.15-.25,2.49-.22,3.47-.95.78-.58,1.44-1.86,1.69-2.78.71-4.6,1.46-9.21,2.08-13.82.26-1.93.71-4.24.81-6.15s-.74-3.57-2.89-2.49c-1.51.77-2,3.06-2.27,4.59-.53,3-.87,6.2-1.29,9.24-.58,4.11-1.13,8.23-1.6,12.36ZM174.56,43.42c2.64,5.14,9.16,3.39,12.28-.3,3.15-3.72,3.03-8.58,1.42-12.95-.65-1.75-1.53-3.5-2.41-5.14l-4.32,7.02.03.13c4.46,3.26,1.75,10.87-3.3,11.8-1.35.25-2.47-.05-3.7-.57Z"/>
      <path class="cls-1" d="M24.32,85.26c.06.14.51.16.66.19,3.18.43,6.58.25,9.26-1.66.79-.56,1.39-1.28,2.11-1.91-.31,4.91-2.39,10.19-6.89,12.64-5.88,3.2-13.16-.39-19.22,3.15-1.48.86-2.5,2.14-3.51,3.5.23-6.16,2.41-12.95,8.95-14.86-1.37-.5-2.66-1-3.91-1.76C-4.67,74.64-1.21,46.22,6.04,31.56c3.21-6.49,8.75-13.54,15.56-16.45.32-.14.67-.32,1.03-.31-6.29,6.79-10.12,15.85-11.7,24.93-1.11,6.38-1.43,13.65.02,20,1.82,7.99,6.44,13.45,14.97,8.8s12.73-18.04,13.62-27.33c.46-4.84.67-16.67-3.78-19.77-3.92-2.73-9.03,2.67-9.93,6.26-.01.05-.03.16.05.15,3.41-2.72,6.51.35,7.71,3.63,2.69,7.34,0,22.76-7.17,27.13-3.25,1.98-6.66,1.31-8.68-1.94-4.3-6.93-1.24-22.02,1.91-29.18,3.66-8.29,12.57-18.23,21.75-10.17,10.22,8.97,7.86,30.45,4.37,42.14-3.33,11.15-9.49,22.39-21.43,25.84ZM26.99,31.22c-2.49.19-3.66,5.76-1.86,7.47,1.96,1.87,3.7-2,3.86-3.58.12-1.24-.29-4.02-2-3.89Z"/>
      <path class="cls-1" d="M89.23,7.97c6.97-.58,6.22,10.89-.33,11.5-7.55.7-6.61-10.92.33-11.5Z"/>
    </g>
  </g>
</svg>