<?xml version="1.0" encoding="UTF-8"?>
<svg id="Capa_2" data-name="Capa 2" xmlns="http://www.w3.org/2000/svg" viewBox="0 0 204.16 105.27">
  <defs>
    <style>
      .cls-1 {
        fill: #eaeaea;
      }
    </style>
  </defs>
  <g id="Capa_1-2" data-name="Capa 1">
    <g>
      <path class="cls-1" d="M23.58,57.47c.28,2.49,1.75,3.98,4.11,4.66,1.98.57,4.93.7,7.03.78,9.14.34,19.83.36,28.97,0,2.15-.09,6.13-.22,7.8-1.54,2.07-1.64,2.39-6.91,1.02-9.01-.96-1.48-3.76-2.06-5.42-2.2-4.62-.37-9.6-.19-14.27-.4-7.02-.32-14.11-.82-21.13-1.16-8.95-.44-22.66.87-27.88-8.12C-.65,32.79-.2,13.95,5.69,7,12.2-.69,30.67.4,40.07.24c8.55-.15,16.97-.19,25.51.19,8.68.39,21.78.66,26.11,9.7,1.82,3.81,2.49,11.18,2,15.35-.03.28-.02.49-.3.66h-22.67c-.5-.86-.33-2.25-.53-3.28-.87-4.52-5.23-4.13-8.82-4.33-8.41-.45-18.03-.52-26.48-.21-2.35.09-5.4.23-7.62.95s-2.91,1.79-3.11,4.13c-.59,7.02,4.72,6.38,9.78,6.74,11.79.85,23.64.63,35.44,1.32,15.1.89,26.24,2.01,27.14,19.9.39,7.67.08,18.81-6,24.3-6.27,5.66-20.1,5.12-28.2,5.32-9.32.23-18.66.26-27.98,0s-27.63.22-32.27-10.21c-1.69-3.79-2.43-12.05-1.94-16.17.03-.28.02-.49.3-.66h22.86l.29.29c.08,1.04-.11,2.22,0,3.24Z"/>
      <path class="cls-1" d="M179.78,49.75l23.69-.15.4.34c.4,7.56,1.24,18.56-4.56,24.39-6.29,6.32-20.16,6.39-28.59,6.65-11.39.35-22.91.34-34.28-.18-8.3-.38-20.22-.49-26.76-6.19s-5.85-15.07-6.08-22.68c-.32-10.52-.79-22.9.59-33.3,1.65-12.5,8.92-15.75,20.48-17.24,13.72-1.77,29.35-1.47,43.21-1.16,9.87.22,26.4-.66,31.95,9.39,2.49,4.51,3.43,14.2,2.83,19.28-.03.28-.02.49-.3.66h-23.43c-.19-.12-.25-.26-.29-.48-.76-4.36.42-7.16-5.1-8.23-4.41-.85-9.2-.69-13.67-.81-7.29-.2-15.83-.69-23.01.4-3.57.54-6.24,1.23-7.78,4.8-2.22,5.15-2.12,21.48-1.28,27.25,1.17,8.08,7.15,8.57,14.16,8.89,7.84.36,17.51.35,25.35,0,3-.14,9.14-.55,11.04-3.05.7-.92,1.42-3.36,1.42-4.48v-4.1Z"/>
      <path class="cls-1" d="M192.63,92.23l6.37,9.21.58.13v-9.33h3.71l.29.29v12c0,.06-.25.29-.19.48h-6.57l-6.48-9.14-.66-.2v9.05l-.29.29h-3.24c-.41-.34-.44-.74-.49-1.23-.25-2.69-.21-7.78,0-10.49.03-.37.11-.69.2-1.04h6.76Z"/>
      <path class="cls-1" d="M143.97,96.23h-3.62c-.08,0,.04-1.01-1.04-1.15-1-.13-4.54-.13-5.52.02-1.41.22-1.19,1.59.42,1.84,2.12.33,8.19-.38,9.57,1.15,1.44,1.59,1.1,6.27-1.52,6.82-2.41.5-7.73.45-10.2.08s-3.28-1.26-3.12-3.88l.28-.29,3.49-.02c-.06,1.02.53,1.25,1.43,1.33,1.33.12,4.44.15,5.71-.03,1.15-.16,1.21-1.64.19-1.88-2.27-.52-5.53-.14-7.99-.39-2.92-.31-3.25-2.21-2.93-4.83.16-1.31.66-2.22,1.97-2.6,1.91-.55,9.98-.68,11.6.23,1.43.79,1.34,2.15,1.26,3.59Z"/>
      <path class="cls-1" d="M15.39,96.23h-3.62c-.07,0-.27-1.14-.67-1.14h-6.29c-.63,0-.61,1.01-.3,1.45.58.74,4.55.39,5.65.45.77.04,1.93.11,2.66.2,2.02.26,2.96,1.06,3.14,3.14.14,1.58-.16,3.81-1.86,4.43-.74.27-2.52.38-3.38.43-2.3.12-5.49.09-7.76-.24-2.41-.35-2.8-1.95-2.62-4.14h3.52c.23,0,.26,1.2,1.32,1.34s5.23.14,6.26-.06c.8-.15.93-1.13.44-1.69-2.71-.65-5.62-.22-8.4-.55-1.44-.17-2.64-.66-2.91-2.23-.3-1.8-.23-4.48,1.81-5.15s10.16-.75,11.85.26c1.31.77,1.21,2.17,1.16,3.51Z"/>
      <path class="cls-1" d="M119.87,92.23c.3.05,1.4.61,1.62.85.99,1.07,1.08,4.88.29,6.01-.22.32-1.04.78-1.06.85-.07.28,1.32,1.02,1.33,1.52v3.52h-3.52l-.26-.32c-.06-.96.11-1.84-.45-2.69l-7.39-.23v2.76c0,.06-.25.29-.19.48h-3.52l-.29-.29v-12.19l.29-.29h13.14ZM110.44,95.47c-.3.6,0,1.05,0,1.61,0,.39-.45,1.07-.02,1.35.28.19,6.04.17,6.78.1.54-.05.91-.04,1.03-.68.11-.59.16-2.38-.66-2.38h-7.14Z"/>
      <path class="cls-1" d="M80.63,92.23c.27.05,1.34.61,1.55.83.96.95,1.08,5.09.26,6.13-.26.32-1.04.61-.96.95.44.3,1.33.95,1.33,1.53v3.05l-.29.29h-3.24c-.72-.83.27-2.4-1-3-.61-.29-6.77-.39-7.11-.16l-.15.23c-.27.81.35,2.24-.31,2.93h-3.24l-.29-.29v-12.48h13.43ZM78.78,95.7c-.66-.57-6.23-.08-7.45-.21-.58.19-.24,2.15-.29,2.71l.15.23c.3.21,6.66.17,7.27,0,.83-.23.88-2.25.32-2.73Z"/>
      <path class="cls-1" d="M65.87,92.23v2.76l-.29.29h-9.81c.07.63-.24,1.45.29,1.9h9.24v2.67h-9.24l-.26.32c-.05.24-.04.49-.04.73,0,.39-.06.81.3,1.05h9.81v3.05h-13.81l-.29-.29v-12c0-.06.25-.29.19-.48h13.9Z"/>
      <path class="cls-1" d="M101.2,96.8c-.33-.11-.23-.9-.55-1.16-.75-.6-6.91-.64-7.53.32s-.74,5.12.55,5.7c.92.41,4.88.42,5.98.27,1.53-.2,1.27-.7,1.76-1.9.65.15,3.45-.31,3.66.32.21,2.66-.12,4.17-2.95,4.62-2.6.41-7.06.36-9.69.02-1.28-.17-2.57-.5-3.19-1.77-.5-1.03-.47-6.3-.34-7.66.14-1.46.62-2.61,2.09-3.06,2.07-.62,9.42-.76,11.48-.23s2.52,2.21,2.4,4.21l-.25.32h-3.43Z"/>
      <path class="cls-1" d="M35.39,92.23h11.9c.3,0,1.68.47,1.99.68,1.44.94,1.48,3.76,1.34,5.32-.28,3.14-1.8,3.55-4.66,3.73-2.11.13-4.34-.13-6.46.02l-.29.29c-.25.77.34,2.09-.31,2.74h-3.24l-.29-.29v-12.48ZM39.52,95.5l-.23.15c-.06.57-.33,2.85.23,3.03,1.37-.17,5.83.44,6.73-.26.66-.51.67-2.55-.37-2.86-1.55-.47-4.64.15-6.36-.06Z"/>
      <path class="cls-1" d="M185.11,104.99h-4.1c-.81-.56-.68-1.98-1.7-2.11-2.37-.29-5.35.21-7.79.04l-1.36,2.06h-4.1l6.38-12.57c.15-.2.35-.17.56-.2,1.08-.13,4.08-.13,5.16,0,.27.03.5.02.64.32l6.22,11.88.09.58ZM178.25,100.04l-2.12-4.45c-.26-.46-.86-.44-1.1,0l-2.12,4.45h5.33Z"/>
      <path class="cls-1" d="M29.87,92.23h3.81v9.62c0,1.41-1.81,2.94-3.16,3.13-2.44.33-8.89.46-11.08-.31-.88-.31-2.14-1.48-2.14-2.43v-10h3.52l.29.29v7.81c0,.63.86,1.27,1.47,1.38.98.18,4.66.19,5.66.03.36-.06,1.04-.36,1.23-.67.11-.17.4-1.69.4-1.89v-6.95Z"/>
      <path class="cls-1" d="M160.35,92.23v3.24h-5.24s-.48.44-.48.48v8.76l-.29.29h-3.43l-.29-.29v-9.05l-5.54-.27c-.27-.19-.36-2.79.11-3.15h15.14Z"/>
      <path class="cls-1" d="M165.3,104.99h-3.81v-12.76h3.71l.29.29v12c0,.06-.25.29-.19.48Z"/>
      <polygon class="cls-1" points="127.59 92.23 127.59 104.71 127.3 104.99 123.87 104.99 123.59 104.71 123.59 92.52 123.87 92.23 127.59 92.23"/>
    </g>
  </g>
</svg>