<?xml version="1.0" encoding="UTF-8"?>
<svg id="Capa_2" data-name="Capa 2" xmlns="http://www.w3.org/2000/svg" viewBox="0 0 197.7 159.27">
  <defs>
    <style>
      .cls-1 {
        fill: #eaeaea;
      }
    </style>
  </defs>
  <g id="Capa_1-2" data-name="Capa 1">
    <g>
      <g>
        <path class="cls-1" d="M109.28,158.53c-.11-.33.33-.72.33-.83v-45.37c0-.06-.77-.83-.83-.83h-6.62l-.5.5v46.53h7.62ZM119.8,111.57c-5.94.83-5.1,9.9,1.55,8.85,5.31-.84,4.03-9.64-1.55-8.85ZM197.7,158.53v-24.34c0-1.43-1.78-5.34-2.71-6.57-4.01-5.31-13.49-5.08-17.99-.55-.38.38-2.61,3.79-2.81,3.64l-1-6.29h-6.95v34.11h7.45l.5-.5v-19.87c0-.55,1.2-3.42,1.59-4.04,2.62-4.21,10.3-5.51,12.83-.78.24.45,1.14,2.85,1.14,3.16v21.53l.5.5h7.45ZM39.89,124.42h-8.11l.23,1.92c3.84,9.74,6.54,19.98,10.36,29.71.46,1.18.48,2.33,1.81,2.5,1.4.17,7.01.22,8.3-.02.37-.07.63-.16.8-.53l11.29-33.59h-8.11l-8.44,26.82-8.12-26.82ZM124.18,124.42h-7.45l-.5.5v33.12l.5.5h6.95l.5-.5v-33.61Z"/>
        <path class="cls-1" d="M1.31,135.02c-.18-6.75,5.93-10.7,12.09-11.25s13.51.62,15.98,7.19c1.65,4.4,1.5,20.52,1.09,25.77-.05.64-.19,1.2-.35,1.81h-6.46c-1.18-1.5-.83-3.81-1.16-5.63-.77-.16-.53.1-.74.43-3.03,4.78-6.43,6.42-12.3,5.83-13.83-1.41-11.83-21.15,1.62-21.15h11.09c.75-5.44-1.47-8.56-7.13-8.3-3.78.18-5.38,1.95-6.62,5.31H1.31ZM22.18,143.3h-9.44c-1.49,0-4.19,1.88-4.45,3.5-1.3,8.02,10.4,7.73,13.14,1.88.83-1.77.84-3.45.75-5.38Z"/>
        <path class="cls-1" d="M152.83,158.53l-1.16-5.63c-.77-.16-.53.1-.74.43-1.85,2.9-2.94,4.46-6.54,5.37-9.03,2.29-17.54-3.58-14.68-13.35,1.21-4.13,6.36-7.35,10.54-7.35h11.43c.87-6.69-4.36-9.97-10.4-7.58-2.43.96-2.4,2.65-3.68,4.6h-6.62c-1.06,0-.09-3.01.1-3.54,4.15-11.54,28.54-10.45,28.54,3.37v23.18l-.5.5h-6.29ZM142.23,143.3c-2.01.47-4.24,1.25-4.72,3.55-1.64,7.86,11.72,8.28,13.75.17.14-.57.68-3.72-.08-3.72h-8.94Z"/>
        <path class="cls-1" d="M86.76,138c-.1-2.07.43-3.89-.72-5.74-2.21-3.55-9.84-3.35-11.88.26-.41.72-.6,2.25-1.19,2.45l-6.76-.1c-1.46-1.02,1.52-6.14,2.49-7.15,4.84-5.09,17.91-5.54,22.91-.53,1.04,1.04,3.1,4.63,3.1,6.01v25.33h-6.46c-1.12-1.58-.74-3.8-1.16-5.63-.96-.09-1.04,1.38-1.66,2.15-4.46,5.58-15.81,5.81-19.48-.72-4.2-7.47,1.25-16.34,9.71-16.34h11.09ZM86.76,143.3h-9.44c-1.49,0-4.19,1.88-4.45,3.5-.67,4.13,1.8,6.2,5.78,6.13,5.52-.09,8.77-4.27,8.11-9.63Z"/>
        <path class="cls-1" d="M197.7,158.53h-7.45l-.5-.5v-21.53c0-.31-.9-2.71-1.14-3.16-2.53-4.73-10.21-3.43-12.83.78-.39.62-1.59,3.49-1.59,4.04v19.87l-.5.5h-7.45v-34.11h6.95l1,6.29c.21.15,2.44-3.26,2.81-3.64,4.5-4.53,13.98-4.76,17.99.55.93,1.23,2.71,5.14,2.71,6.57v24.34Z"/>
        <path class="cls-1" d="M39.89,124.42l8.12,26.82,8.44-26.82h8.11l-11.29,33.59c-.17.36-.43.46-.8.53-1.28.24-6.9.19-8.3.02-1.33-.17-1.35-1.32-1.81-2.5-3.82-9.74-6.52-19.97-10.36-29.71l-.23-1.92h8.11Z"/>
        <path class="cls-1" d="M109.28,158.53h-7.62v-46.53l.5-.5h6.62c.06,0,.83.77.83.83v45.37c0,.11-.44.5-.33.83Z"/>
        <polygon class="cls-1" points="124.18 124.42 124.18 158.04 123.68 158.53 116.73 158.53 116.23 158.04 116.23 124.92 116.73 124.42 124.18 124.42"/>
        <path class="cls-1" d="M119.8,111.57c5.58-.78,6.86,8.02,1.55,8.85-6.64,1.05-7.49-8.02-1.55-8.85Z"/>
      </g>
      <g>
        <path class="cls-1" d="M110.27,49.73c8.62-.39,17.71.15,26.06,2.19l16.79,25.94c3.67,6.07-1.52,12.62-8.38,10.44-6.91-2.2-13.35-5.16-20.54-7.08-24.36-6.51-42.3-3.44-65.48,4.83-4.96,1.77-11.02,5.39-14.37-1.3-2.73-5.44,2.29-8.93,5.98-11.94,16.67-13.6,38.33-22.11,59.95-23.09Z"/>
        <path class="cls-1" d="M132.69,46.51c-.94-.26-1.95-.41-2.92-.53-22.16-2.86-44.89,1.08-64.63,11.44l-11.56,7L93.36,2.78c2.88-3.69,8.13-3.7,11.05-.11l28.28,43.83Z"/>
      </g>
    </g>
  </g>
</svg>