<?xml version="1.0" encoding="UTF-8"?>
<svg id="Capa_2" data-name="Capa 2" xmlns="http://www.w3.org/2000/svg" viewBox="0 0 580.31 83.43">
  <defs>
    <style>
      .cls-1 {
        fill: #eaeaea;
      }
    </style>
  </defs>
  <g id="Capa_1-2" data-name="Capa 1">
    <g>
      <path class="cls-1" d="M54.42,0l18.29,3.75c44.29,15.38,38.91,68.11-6.73,77.91-3.36.72-7.01.62-10.2,1.67-3.52-.23-7.39.32-10.85,0C24.1,81.41,2.08,67.54.16,45.04-2.36,15.4,24.75,1.81,50.35,0h4.07ZM86.06,17.18C54-17.79-12.97,17.72,12.25,59.4c12.74,21.05,42.78,26.51,63.66,14.57s27.21-38.19,10.16-56.79Z"/>
      <path class="cls-1" d="M545.53,36.58c-1.71.68-3.33-1.33-4.39-1.38-.41-.02-.79,2.42-2.85,2.6-1.34.11-6.89-3.49-7.68-.87s5.94,4.02,7.69,5.18c9.83,6.52-3.89,18.96-13.47,11.43-1.94-1.52-3.06-3.78-.71-5.49,3.47-2.52,7.41,3.56,10.56.38.47-2.18-8.99-4.23-10.5-7.79-4.18-9.87,10.58-14.1,16.27-7.45.64-2.18,3.26-2.48,4.05-3.39,1.37-1.57.31-7.18,4.08-7.19.35,0,2.8,1.07,2.92,1.25,1.88,2.9-2.47,6.93,4.61,7.25,2.65,3.53-.03,5.73-3.77,5.52-.62.63.92,14.37-1.06,17.57-1.36,2.21-5.75,1.2-5.75-1v-16.6Z"/>
      <path class="cls-1" d="M355.62,41.36c-1.9,2.72,11.3,8.55,6.05,13.15-5.25,4.6-12.18-11.71-14.55-11.81-1.24-.05-.56,1.52-.54,1.86.11,3,1.33,10.94-3.53,10.94-3.11,0-3.56-3.27-3.76-5.67-.5-5.96-.49-16.44,0-22.41.13-1.66.3-3.37,1.36-4.74.81-.53,12.85-.53,14.57-.27,9.4,1.45,10,16.84.41,18.96ZM354.06,35.73c1.5-1.22,1.54-4.72-.1-5.99l-7.19-.62.64,7.16c1.03.72,5.7.21,6.65-.56Z"/>
      <path class="cls-1" d="M254.53,23.37c.83-2.99,5.72-3.11,6.64.82-.36,4.6,1.3,29.89-.69,31.87-2.87,2.86-5.93-1.09-6.28-1.09s-3.39,2.68-6.06,2.57c-16.76-.69-12.56-33.75,6.39-24.35.47-2.68-.65-7.5,0-9.82ZM245.91,49.27c5.94,7.39,12.26-8.97,4.74-11.21-5.35-1.6-7.76,7.45-4.74,11.21Z"/>
      <path class="cls-1" d="M297.1,56.07c-2.38,2.37-4.96-.43-6.28-.49-2.87-.13-4.48,3.66-10.33.79-12.32-6.05-5.54-31.32,9.65-23.19,1.8-.09.63-7.86,1.16-9.67,1.15-3.95,6.09-2.94,6.65,1.88.74,6.35.56,20.6.02,27.14-.09,1.05-.12,2.79-.87,3.53ZM288.92,38.83c-2.88-2.12-6.1-.22-7.31,2.79-3.1,7.74,6.59,14.08,9.17,4.37.56-2.11-.12-5.87-1.87-7.16Z"/>
      <path class="cls-1" d="M484.48,63.35c-.26.92-2.03,1.76-3.05,1.76-4.84.02-3.67-7.61-3.73-10.9-23.27,8.9-21.25-34.14.67-21.68-.23-3.46,6.12-2.01,6.12-.34v31.16ZM476.17,47.92c2.43-2.27,2.02-10.7-1.53-11.35-6.7-1.23-8.39,7.02-5.12,11.06,1.24,1.53,5.28,1.58,6.65.3Z"/>
      <path class="cls-1" d="M136.84,50.13c2.92.81,3.33,6.01-.7,6.76-1.63.3-12.05.29-13.42-.11s-2.25-2.31-2.47-3.63c-.77-4.68-.53-19.32-.07-24.38.74-8.13,11.68-4.83,17.49-4.21,3.99,9.01-7.54,4.49-10.04,6.23l-.64,5.8c2.91.07,11.83-1.17,11.39,3.62-.5,5.35-8.65,1.99-10.75,3.45l-.64,6.48c2.68.47,7.5-.65,9.84,0Z"/>
      <path class="cls-1" d="M574.01,32.52l2.5-2.57c1.17-.11,3.15,1.23,3.49,2.36.6,1.99.31,20.48-.55,22.06s-3.61,1.32-4.97.51c-.46-.27-.4-1.39-.83-1.4-2.54-.01-3.84,3.46-9.63,1.55-14.66-4.83-6.37-33.89,9.98-22.51ZM564.68,47.94c.85.84,3.71,1.04,4.9.84,5.46-.94,4.9-14.57-3.24-12.06-3.47,1.07-3.94,8.96-1.67,11.23Z"/>
      <path class="cls-1" d="M371.2,45.39c1.06,8.61,11.3.63,13.79,1.43,4.06,1.3.62,6.16-2.47,7.51-16.24,7.1-25.98-13.42-13.99-22.1,8.56-6.2,19.76,1.16,18.87,11.38-.28.72-2.53,1.79-2.98,1.79h-13.23ZM380.01,40.65c0-6.3-7.87-6.54-9.48-1.01l9.48,1.01Z"/>
      <path class="cls-1" d="M194.49,46.75l-.69,1.35c2.19,2.45,3.77,3.9,7.3,3.24s8.23-6.11,9.08.84c-6.14,8.81-21.93,6.03-23.42-5.15-2.63-19.69,25.67-20.44,23.57-1.07-.49.1-1.34.79-1.59.79h-14.24ZM203.65,42c-1.17-6.01-9.22-6.74-9.5,0h9.5Z"/>
      <path class="cls-1" d="M309.29,32c21.25-4.4,18.74,31.94-1.15,24.55-11.09-4.12-9.38-22.37,1.15-24.55ZM316.06,39.49c-5.42-6.86-12.72,7.51-5.74,10.83,6.26,2.98,8.91-6.81,5.74-10.83Z"/>
      <path class="cls-1" d="M421.26,29.99c17.28-1.46,16.19,29.68-2.62,25.27-12.02-2.81-11.91-24.05,2.62-25.27ZM425.29,47.92c2.47-2.32,1.93-10.13-1.66-11.2-8.13-2.42-8.54,10.47-3.8,11.92,1.33.41,4.44.23,5.46-.73Z"/>
      <path class="cls-1" d="M457.18,54.71c-1.41,1.43-4.11.77-5.13-.98-2.71-4.66,2.42-17.49-3.86-17.88-8.71-.55-3.39,13.03-5.45,17.66-1.54,3.48-5.96,2.28-6.46-1.64-.47-3.66-.4-13.93.02-17.66.8-6.98,5.5-2.27,7-2.48.63-.09,1.89-1.32,3.13-1.62,5.45-1.33,11.08,1.65,11.62,7.47.23,2.56.33,15.93-.87,17.14Z"/>
      <path class="cls-1" d="M162.95,55.22c-.29,1.04-2.55,2.08-3.69,1.72-7.25-2.37,1.35-18.4-6.18-19.67-8.93-1.51-2.94,15.25-5.67,18.7-1.5,1.9-4.92.94-5.82-1.09-.63-1.43-.68-17.03-.32-19.25.64-3.9,4.49-5.4,6.39-1.74,3.53-4.11,15.27-1.81,15.27,3.73,0,3.76.75,14.95,0,17.61Z"/>
      <path class="cls-1" d="M213.15,34.21c.22-1.34,1.81-2.35,3.11-2.36,1.46-.62,2.82,1.92,3.32,1.92.37,0,1.23-1.22,1.88-1.42,5.97-1.81,12.21.14,13.21,6.78.38,2.51.67,15.61-.66,16.93-.99.98-3.86,1.26-4.94.18-3.38-3.36,2.98-20.27-6.05-19-6.64.94.4,19.77-6.82,19.73-.95,0-3.05-1.03-3.05-1.76,0-5.84-.87-15.77,0-21Z"/>
      <path class="cls-1" d="M494.44,31.38c3.19,4.43-3,18.86,5.31,18.68,8.29-.18-1.17-21.31,8.11-19.59,3.42.63,2.67,12.2,2.41,15.28-1.14,13.39-19.21,12.08-21.41,3.72-.54-2.07-.74-15.35-.19-17.16.75-2.48,4.31-2.96,5.76-.93Z"/>
      <path class="cls-1" d="M174.98,32c3-.55,10.65-.41,11.05,3.59-.74,6.16-3.7,2.53-7.16,2.32-6.16-.38-8.51,7.82-3.69,11.86s7.04-3.03,10.74,1.5c.56,6.7-8.86,7.07-13.52,4.67-9.56-4.93-8.06-21.97,2.57-23.93Z"/>
      <path class="cls-1" d="M399.53,29.98c3.54-.44,10.27.71,8.86,5.44-1.13,3.81-5.91.25-8.22.61-6.23.97-6.57,13.4.55,13.33,1.95-.02,6.52-3.25,7.67.57,1.8,5.96-9.81,6.98-14.46,3.58-9.31-6.81-6.04-22.09,5.6-23.54Z"/>
      <path class="cls-1" d="M519.59,54.71c-2.12,2.15-5.44-.04-5.9-2.92-.5-3.12-.5-15.09,0-18.21.76-4.75,6.04-4.18,6.72-.7.61,3.13.35,14.71.04,18.31-.09,1.07-.11,2.76-.87,3.53Z"/>
      <path class="cls-1" d="M270.64,32.69c1.17,1.17,1.16,17.82.85,20.51-.62,5.42-6.15,4.8-6.73.63-.45-3.19-.6-15.97-.05-18.91.5-2.68,4.01-4.14,5.93-2.22Z"/>
      <path class="cls-1" d="M267.86,21.82c2.43-.22,5.45,3.43,3.34,6-5.2,6.32-9.9-5.4-3.34-6Z"/>
      <path class="cls-1" d="M516.17,20.45c5.05-1.47,6.39,6.02,2.43,7.22-4.93,1.5-6.94-5.91-2.43-7.22Z"/>
      <path class="cls-1" d="M30,47.42c.32,6.26,6.13,10.08,11.95,10.76,4.21.5,14.49-1.52,14.53,5.14.03,4.99-3.65,4.82-7.79,5.12-20.12,1.46-35.81-8.14-33.6-30.17,2.46-24.5,28.26-24.02,47.17-22.73,9.72.66,21.97,4.17,16.42,16.45-2.8,6.2-9.41,6.18-11.41,8.93-2.48,3.42,2.7,8.86,4.81,11.56,5.57,7.09,20.51,18.13-1.02,15.93-3.88-.4-4.65-1.02-7.01-3.83-2.07-2.47-10.82-15.47-11.8-18.02-3.07-8.02,6.67-11.41,9.55-17.89.72-4.73-15.69-3.76-18.59-3.57-4.69.32-9.73,1.73-12.1,6.13-.68,1.26-2.29,4.53-.75,5.35h12.89c.74,0,6.29,1.79,6.47,2.49-.11,1.85.38,4.99-.64,6.55-.24.37-3.58,1.8-3.79,1.8h-15.26Z"/>
    </g>
  </g>
</svg>